<svg width="50" height="50" viewBox="0 0 50 50" fill="none" xmlns="http://www.w3.org/2000/svg">
<rect width="50" height="50" rx="25" fill="#41AA3F"/>
<path d="M32.7695 17.0586H32.7344C33.0859 17.1289 33.4023 17.3398 33.6484 17.6211C33.8594 17.9023 34 18.2539 34 18.6406C34 21.4883 33.2617 24.125 31.8555 26.5156C30.4492 28.9062 28.5859 30.7695 26.2656 32.1055C23.8047 33.5469 21.168 34.25 18.3555 34.25C17.9688 34.25 17.6172 34.1445 17.3359 33.8984C17.0547 33.6875 16.8789 33.3711 16.8086 32.9844L16.0352 29.6797C15.9297 29.3281 15.9648 28.9414 16.1406 28.5898C16.3164 28.2383 16.5977 27.9922 16.9844 27.8516L20.5352 26.3047C20.8516 26.1641 21.2031 26.1641 21.5547 26.2344C21.9062 26.3398 22.1875 26.5156 22.4336 26.7617L23.5586 28.168C25.457 27.1836 26.8984 25.707 27.9531 23.8086L26.5469 22.6836C26.2656 22.4727 26.0547 22.1562 25.9844 21.8047C25.9141 21.4531 25.9492 21.1367 26.0898 20.7852L27.6016 17.2344C27.7422 16.8828 27.9883 16.6016 28.3398 16.4258C28.6914 16.25 29.043 16.2148 29.4297 16.2852L32.7695 17.0586ZM18.4258 32.5625C20.9219 32.5625 23.2422 31.9297 25.4219 30.6641C27.4961 29.4336 29.1484 27.7812 30.4141 25.6719C31.6797 23.5273 32.3125 21.207 32.3125 18.6758L29.1133 17.9375L27.6367 21.418L30.0273 23.3516C29.2188 25.1094 28.3047 26.4805 27.25 27.5C26.1953 28.5547 24.8242 29.4688 23.1016 30.2773L21.168 27.8867L17.6875 29.3633L18.4258 32.5625Z" fill="white"/>
</svg>
