<svg width="19" height="19" viewBox="0 0 19 19" fill="none" xmlns="http://www.w3.org/2000/svg">
<path d="M17.7695 1.05859H17.7344C18.0859 1.12891 18.4023 1.33984 18.6484 1.62109C18.8594 1.90234 19 2.25391 19 2.64062C19 5.48828 18.2617 8.125 16.8555 10.5156C15.4492 12.9062 13.5859 14.7695 11.2656 16.1055C8.80469 17.5469 6.16797 18.25 3.35547 18.25C2.96875 18.25 2.61719 18.1445 2.33594 17.8984C2.05469 17.6875 1.87891 17.3711 1.80859 16.9844L1.03516 13.6797C0.929688 13.3281 0.964844 12.9414 1.14062 12.5898C1.31641 12.2383 1.59766 11.9922 1.98438 11.8516L5.53516 10.3047C5.85156 10.1641 6.20312 10.1641 6.55469 10.2344C6.90625 10.3398 7.1875 10.5156 7.43359 10.7617L8.55859 12.168C10.457 11.1836 11.8984 9.70703 12.9531 7.80859L11.5469 6.68359C11.2656 6.47266 11.0547 6.15625 10.9844 5.80469C10.9141 5.45312 10.9492 5.13672 11.0898 4.78516L12.6016 1.23438C12.7422 0.882812 12.9883 0.601562 13.3398 0.425781C13.6914 0.25 14.043 0.214844 14.4297 0.285156L17.7695 1.05859ZM3.42578 16.5625C5.92188 16.5625 8.24219 15.9297 10.4219 14.6641C12.4961 13.4336 14.1484 11.7812 15.4141 9.67188C16.6797 7.52734 17.3125 5.20703 17.3125 2.67578L14.1133 1.9375L12.6367 5.41797L15.0273 7.35156C14.2188 9.10938 13.3047 10.4805 12.25 11.5C11.1953 12.5547 9.82422 13.4688 8.10156 14.2773L6.16797 11.8867L2.6875 13.3633L3.42578 16.5625Z" fill="white"/>
</svg>
