<svg width="48" height="48" viewBox="0 0 48 48" fill="none" xmlns="http://www.w3.org/2000/svg">
<path d="M48 24C48 37.2548 37.2548 48 24 48C10.7452 48 0 37.2548 0 24C0 10.7452 10.7452 0 24 0C37.2548 0 48 10.7452 48 24Z" fill="#F5F5F5"/>
<path d="M33.1668 17.3419C32.3688 17.9048 31.4853 18.3353 30.5502 18.6169C30.0483 18.0398 29.3813 17.6308 28.6394 17.4451C27.8974 17.2595 27.1164 17.3062 26.4019 17.5789C25.6874 17.8516 25.0739 18.3372 24.6443 18.97C24.2148 19.6027 23.9899 20.3522 24.0002 21.1169V21.9502C22.5357 21.9882 21.0846 21.6634 19.776 21.0047C18.4674 20.3461 17.3421 19.3741 16.5002 18.1752C16.5002 18.1752 13.1668 25.6752 20.6668 29.0085C18.9506 30.1735 16.9061 30.7576 14.8335 30.6752C22.3335 34.8419 31.5002 30.6752 31.5002 21.0919C31.4994 20.8598 31.4771 20.6282 31.4335 20.4002C32.284 19.5615 32.8842 18.5025 33.1668 17.3419Z" fill="#34B6FF"/>
</svg>
