<svg width="48" height="48" viewBox="0 0 48 48" fill="none" xmlns="http://www.w3.org/2000/svg">
<circle cx="24" cy="24" r="24" fill="#F5F5F5"/>
<path d="M28.1666 15.6665H19.8333C17.5321 15.6665 15.6666 17.532 15.6666 19.8332V28.1665C15.6666 30.4677 17.5321 32.3332 19.8333 32.3332H28.1666C30.4678 32.3332 32.3333 30.4677 32.3333 28.1665V19.8332C32.3333 17.532 30.4678 15.6665 28.1666 15.6665Z" fill="#C4C4C4"/>
<path d="M27.3334 23.4748C27.4362 24.1683 27.3178 24.8766 26.9948 25.4989C26.6719 26.1213 26.161 26.6259 25.5347 26.9412C24.9085 27.2564 24.1987 27.3661 23.5065 27.2547C22.8143 27.1433 22.1748 26.8165 21.6791 26.3207C21.1833 25.825 20.8565 25.1855 20.7451 24.4933C20.6337 23.8011 20.7434 23.0913 21.0586 22.4651C21.3739 21.8388 21.8785 21.3279 22.5009 21.005C23.1232 20.682 23.8315 20.5636 24.525 20.6664C25.2325 20.7713 25.8874 21.101 26.3931 21.6067C26.8988 22.1124 27.2285 22.7673 27.3334 23.4748Z" fill="#F5F5F5"/>
<path d="M28.5834 19.4165H28.5917" stroke="#F5F5F5" stroke-linecap="round" stroke-linejoin="round"/>
</svg>
