<svg width="52" height="52" viewBox="0 0 52 52" fill="none" xmlns="http://www.w3.org/2000/svg">
<path d="M52 22.3162C52 11.3492 43.112 2.42651 32.1875 2.42651H1.79619C0.804162 2.42651 0 3.23085 0 4.2227C0 4.42247 0.0218855 9.16585 1.92785 13.9745C4.5795 20.6633 9.51775 24.1989 16.2089 24.1989H16.6288L15.008 27.4406C14.5644 28.3278 14.924 29.4068 15.8115 29.8505C16.0694 29.9793 16.3432 30.0404 16.6132 30.0404C17.2721 30.0404 17.9066 29.6766 18.2212 29.047L20.6452 24.1991H32.1633C36.515 24.1991 40.1916 27.5385 40.1916 31.4914C40.1916 35.0767 37.1982 38.0504 33.3189 38.5411C33.1679 37.7538 32.8922 36.7687 32.3899 35.7704C30.8947 32.7991 28.0784 31.1627 24.4601 31.1627H16.6146C15.6228 31.1627 14.8184 31.9671 14.8184 32.9591C14.8184 33.1876 14.8489 35.2522 15.9076 37.3784C16.5229 38.6143 17.3703 39.6153 18.4064 40.3683C17.3701 41.1213 16.5227 42.1223 15.9076 43.358C14.8489 45.4844 14.8184 47.549 14.8184 47.7775C14.8184 48.7695 15.6228 49.5737 16.6146 49.5737H24.4601C28.0784 49.5737 30.8947 47.9372 32.3899 44.9662C32.8969 43.9579 33.1728 42.9641 33.3229 42.1729C43.7213 41.5797 52 32.9006 52 22.3162ZM24.4601 34.7549C26.7072 34.7549 28.2358 35.5854 29.134 37.294C29.3299 37.6666 29.4763 38.0449 29.5859 38.4002H23.8211C21.5777 38.4002 20.0561 37.572 19.1696 35.8679C18.9747 35.4929 18.8298 35.1121 18.7218 34.7549H24.4601ZM29.1809 43.351C28.2903 45.1208 26.746 45.9812 24.4601 45.9812H18.7226C18.8217 45.652 18.9522 45.3034 19.1236 44.959C20.0023 43.1938 21.5389 42.3357 23.8213 42.3357H29.5852C29.4847 42.6628 29.353 43.0091 29.1809 43.351ZM38.3765 7.25306L30.3643 20.6064H21.3745V6.01907H32.1873C34.3781 6.01907 36.4685 6.45853 38.3765 7.25306ZM5.3005 12.7339C4.29096 10.2209 3.87794 7.66486 3.70898 6.01889H17.7822V20.6062H16.2089C11.0693 20.6064 7.39923 17.9579 5.3005 12.7339ZM34.4286 20.8158L41.5209 8.99497C45.2754 11.6584 47.8589 15.8816 48.3295 20.7183L40.005 23.4932C38.4159 22.1202 36.4966 21.2027 34.4286 20.8158ZM43.4555 34.0285C43.67 33.2149 43.7838 32.365 43.7838 31.4914C43.7838 29.7165 43.3218 28.0025 42.4539 26.4636L48.2578 24.5291C47.7551 28.2344 46.009 31.5477 43.4555 34.0285Z" fill="#343232"/>
<path d="M10.6867 8.66504C10.2144 8.66504 9.75092 8.85728 9.41668 9.19134C9.08262 9.5254 8.89038 9.98903 8.89038 10.4614C8.89038 10.9336 9.08262 11.3972 9.41668 11.7311C9.75267 12.0652 10.2144 12.2576 10.6867 12.2576C11.1589 12.2576 11.6226 12.0652 11.9565 11.7311C12.2924 11.3972 12.4829 10.9336 12.4829 10.4614C12.4829 9.98903 12.2924 9.5254 11.9565 9.19134C11.6243 8.85728 11.1609 8.66504 10.6867 8.66504Z" fill="#343232"/>
</svg>
