<svg width="14" height="16" viewBox="0 0 14 16" fill="none" xmlns="http://www.w3.org/2000/svg">
<path d="M9.8125 9.5C10.5625 9.5 11.25 9.6875 11.9062 10.0625C12.5312 10.4375 13.0625 10.9688 13.4375 11.5938C13.8125 12.25 14 12.9375 14 13.6875V14.5C14 14.9375 13.8438 15.2812 13.5625 15.5625C13.25 15.875 12.9062 16 12.5 16H1.5C1.0625 16 0.71875 15.875 0.4375 15.5625C0.125 15.2812 0 14.9375 0 14.5V13.6875C0 12.9375 0.1875 12.25 0.5625 11.5938C0.9375 10.9688 1.4375 10.4375 2.09375 10.0625C2.71875 9.6875 3.4375 9.5 4.1875 9.5C4.4375 9.5 4.8125 9.59375 5.25 9.71875C5.53125 9.8125 5.78125 9.875 5.96875 9.90625C6.28125 9.96875 6.625 10 7 10C7.375 10 7.71875 9.96875 8.03125 9.90625C8.21875 9.875 8.4375 9.8125 8.75 9.71875C9.1875 9.59375 9.53125 9.5 9.8125 9.5ZM12.5 14.5V13.6875C12.5 12.9688 12.2188 12.3438 11.6875 11.8125C11.1562 11.2812 10.5312 11 9.8125 11C9.6875 11 9.46875 11.0625 9.1875 11.125C8.4375 11.375 7.6875 11.5 7 11.5C6.3125 11.5 5.5625 11.375 4.8125 11.125C4.5 11.0625 4.28125 11 4.1875 11C3.4375 11 2.8125 11.2812 2.28125 11.8125C1.75 12.3438 1.5 12.9688 1.5 13.6875V14.5H12.5ZM7 9C6.1875 9 5.4375 8.8125 4.75 8.40625C4.0625 8 3.5 7.4375 3.09375 6.75C2.6875 6.0625 2.5 5.3125 2.5 4.5C2.5 3.6875 2.6875 2.9375 3.09375 2.25C3.5 1.5625 4.0625 1.03125 4.75 0.625C5.4375 0.21875 6.1875 0 7 0C7.8125 0 8.5625 0.21875 9.25 0.625C9.9375 1.03125 10.4688 1.5625 10.875 2.25C11.2812 2.9375 11.5 3.6875 11.5 4.5C11.5 5.3125 11.2812 6.0625 10.875 6.75C10.4688 7.4375 9.9375 8 9.25 8.40625C8.5625 8.8125 7.8125 9 7 9ZM7 1.5C6.15625 1.5 5.4375 1.8125 4.875 2.375C4.28125 2.96875 4 3.6875 4 4.5C4 5.34375 4.28125 6.0625 4.875 6.625C5.4375 7.21875 6.15625 7.5 7 7.5C7.8125 7.5 8.53125 7.21875 9.125 6.625C9.6875 6.0625 10 5.34375 10 4.5C10 3.6875 9.6875 2.96875 9.125 2.375C8.53125 1.8125 7.8125 1.5 7 1.5Z" fill="#A5A5A5"/>
</svg>
