<svg width="16" height="16" viewBox="0 0 16 16" fill="none" xmlns="http://www.w3.org/2000/svg">
<path d="M14 0C14.5312 0 15 0.21875 15.4062 0.59375C15.7812 1 16 1.46875 16 2V11C16 11.5625 15.7812 12.0312 15.4062 12.4062C15 12.8125 14.5312 13 14 13H9.5L5.59375 15.9375C5.53125 16 5.4375 16 5.34375 16C5.25 16 5.15625 15.9688 5.09375 15.9062C5.03125 15.8438 5 15.75 5 15.625V13H2C1.4375 13 0.96875 12.8125 0.59375 12.4062C0.1875 12.0312 0 11.5625 0 11V2C0 1.46875 0.1875 1 0.59375 0.59375C0.96875 0.21875 1.4375 0 2 0H14ZM14.5 11V2C14.5 1.875 14.4375 1.75 14.3438 1.65625C14.25 1.5625 14.125 1.5 14 1.5H2C1.84375 1.5 1.71875 1.5625 1.625 1.65625C1.53125 1.75 1.5 1.875 1.5 2V11C1.5 11.1562 1.53125 11.2812 1.625 11.375C1.71875 11.4688 1.84375 11.5 2 11.5H6.5V13.375L9 11.5H14C14.125 11.5 14.25 11.4688 14.3438 11.375C14.4375 11.2812 14.5 11.1562 14.5 11Z" fill="#A5A5A5"/>
</svg>
