<svg width="17" height="16" viewBox="0 0 17 16" fill="none" xmlns="http://www.w3.org/2000/svg">
<path d="M9 4.90625C9 5.71875 8.78125 6.46875 8.40625 7.09375C8 7.71875 7.46875 8.21875 6.8125 8.5625L7.125 14.2188C7.15625 14.7188 7 15.125 6.65625 15.4688C6.3125 15.8438 5.90625 16 5.4375 16H3.5625C3.0625 16 2.65625 15.8438 2.3125 15.4688C1.96875 15.125 1.8125 14.7188 1.875 14.2188L2.1875 8.5625C1.5 8.21875 0.96875 7.71875 0.59375 7.09375C0.1875 6.46875 0 5.75 0 4.9375C0 4.28125 0.15625 3.125 0.5 1.4375C0.5625 1.03125 0.75 0.6875 1.125 0.40625C1.46875 0.15625 1.90625 0 2.40625 0C2.78125 0 3.15625 0.09375 3.46875 0.25C3.75 0.09375 4.09375 0 4.5 0C4.875 0 5.21875 0.09375 5.53125 0.25C5.84375 0.09375 6.1875 0 6.59375 0C7.09375 0 7.5 0.15625 7.875 0.40625C8.21875 0.6875 8.4375 1.03125 8.5 1.4375C8.8125 3.125 9 4.28125 9 4.90625ZM5.25 7.53125C5.9375 7.40625 6.46875 7.125 6.875 6.65625C7.28125 6.1875 7.5 5.625 7.5 4.9375C7.5 4.5625 7.40625 3.9375 7.28125 3L7.03125 1.71875C7 1.625 6.90625 1.5625 6.78125 1.53125C6.625 1.5 6.46875 1.5 6.34375 1.53125C6.1875 1.59375 6.125 1.65625 6.125 1.71875V5.28125C6.09375 5.40625 6 5.46875 5.875 5.5C5.71875 5.5625 5.5625 5.5625 5.4375 5.5C5.28125 5.46875 5.1875 5.40625 5.1875 5.28125L4.96875 1.71875C4.9375 1.65625 4.84375 1.59375 4.71875 1.53125C4.5625 1.5 4.40625 1.5 4.28125 1.53125C4.125 1.59375 4.03125 1.65625 4.03125 1.71875L3.8125 5.28125C3.78125 5.40625 3.6875 5.46875 3.5625 5.5C3.40625 5.5625 3.25 5.5625 3.125 5.5C2.96875 5.46875 2.875 5.40625 2.875 5.28125V1.71875C2.875 1.65625 2.78125 1.59375 2.65625 1.53125C2.5 1.5 2.34375 1.5 2.21875 1.53125C2.0625 1.5625 1.96875 1.625 1.96875 1.71875L1.71875 3C1.5625 3.9375 1.5 4.5625 1.5 4.90625C1.5 5.59375 1.6875 6.1875 2.09375 6.65625C2.5 7.125 3.0625 7.40625 3.75 7.53125L3.375 14.3125C3.34375 14.375 3.34375 14.4062 3.40625 14.4375C3.4375 14.5 3.5 14.5 3.5625 14.5H5.4375C5.5 14.5 5.53125 14.5 5.59375 14.4375C5.625 14.4062 5.65625 14.375 5.65625 14.3125L5.25 7.53125ZM12.1875 9.71875C10.7188 8.5625 10 7.21875 10 5.6875C10 4.71875 10.2812 3.78125 10.875 2.84375C11.375 2.03125 12.0625 1.34375 12.875 0.8125C13.6875 0.28125 14.5 0 15.25 0C15.7188 0 16.125 0.1875 16.4688 0.5C16.8125 0.84375 17 1.25 17 1.6875V14.3125C17 14.7812 16.8125 15.1875 16.4688 15.5C16.125 15.8438 15.7188 16 15.25 16H13.5C12.9688 16 12.5312 15.8438 12.1875 15.4688C11.8438 15.0938 11.6875 14.6562 11.75 14.1562L12.1875 9.71875ZM11.5 5.6875C11.5 6.375 11.7188 7.03125 12.1562 7.59375C12.5 8.0625 13.0312 8.53125 13.75 9L13.25 14.3125C13.25 14.375 13.25 14.4062 13.3125 14.4375C13.375 14.5 13.4375 14.5 13.5 14.5H15.25C15.3125 14.5 15.3438 14.5 15.4062 14.4375C15.4688 14.4062 15.5 14.375 15.5 14.3125V1.6875C15.5 1.65625 15.4688 1.625 15.4062 1.5625C15.3438 1.53125 15.3125 1.5 15.25 1.5C14.75 1.5 14.2188 1.71875 13.625 2.09375C13.0312 2.5 12.5312 3 12.1562 3.59375C11.7188 4.28125 11.5 5 11.5 5.6875Z" fill="#A5A5A5"/>
</svg>
