<svg width="50" height="50" viewBox="0 0 50 50" fill="none" xmlns="http://www.w3.org/2000/svg">
<path d="M49.9715 27.1158C49.7849 25.8961 48.734 24.9965 47.5002 25H42.0045C42.7432 24.2226 43.2026 23.2219 43.3103 22.155C43.5681 19.5227 41.7316 17.145 39.1197 16.7294C38.8707 14.76 37.5511 12.7287 33.2534 12.518C32.9447 10.9862 31.8076 9.75451 30.3054 9.32463C30.9058 7.74846 30.7971 5.98987 30.0071 4.49964C28.6574 2.14847 25.4186 0.678752 20.1048 0.00658625C19.733 -0.0402886 19.3756 0.166644 19.2313 0.512542C19.0869 0.858342 19.1911 1.25805 19.4859 1.48939C21.7975 3.30257 22.2777 5.52669 20.9532 8.28791C20.0979 10.0726 18.8161 10.8335 16.6668 10.8335H15.8335C12.4513 10.8378 9.6066 13.3705 9.21119 16.7295C6.60066 17.1469 4.76589 19.5239 5.02341 22.1551C5.13113 23.222 5.5905 24.2228 6.32917 25.0001H2.50028C1.26639 24.9965 0.215516 25.8962 0.0288954 27.1159C-0.157725 28.3356 0.576062 29.5083 1.75457 29.8738C2.90623 38.1945 8.45172 45.2491 16.2651 48.3334H5.83366C5.37341 48.3334 5.00037 48.7065 5.00037 49.1667C5.00037 49.627 5.37341 50 5.83366 50H44.1669C44.6271 50 45.0002 49.6269 45.0002 49.1667C45.0002 48.7066 44.627 48.3334 44.1669 48.3334H33.7354C41.5487 45.2492 47.0942 38.1945 48.246 29.8738C49.4244 29.5083 50.1582 28.3355 49.9715 27.1158ZM7.52936 19.4298C8.1613 18.7319 9.05885 18.3336 10.0004 18.3334C10.2213 18.3335 10.4334 18.2457 10.5897 18.0893C10.746 17.9331 10.8337 17.7211 10.8337 17.5C10.8368 14.7398 13.0736 12.503 15.8337 12.5H16.667C19.4746 12.5 21.3142 11.3908 22.4564 9.00881C23.7035 6.40794 23.6408 4.04212 22.2981 2.05082C25.5964 2.72709 27.6989 3.82572 28.5619 5.32962C29.2146 6.46565 29.1617 7.88742 28.4004 9.67365C28.2905 9.93097 28.3173 10.2264 28.4716 10.4598C28.6259 10.6932 28.8871 10.8335 29.167 10.8333C30.5471 10.8348 31.6655 11.9532 31.667 13.3333C31.6669 13.5543 31.7547 13.7663 31.911 13.9227C32.0673 14.0789 32.2793 14.1667 32.5004 14.1667C36.982 14.1667 37.5004 16.0693 37.5004 17.5C37.5003 17.721 37.5881 17.933 37.7444 18.0893C37.9007 18.2456 38.1127 18.3334 38.3338 18.3334C39.2753 18.3337 40.1728 18.7319 40.8048 19.4298C41.4367 20.1276 41.7442 21.0601 41.6513 21.9971C41.4203 23.7422 39.9148 25.035 38.1549 25H10.1794C8.4193 25.035 6.91394 23.7422 6.68288 21.9971C6.58991 21.0602 6.89743 20.1277 7.52936 19.4298ZM25.0003 48.3333C14.2751 48.3828 5.12058 40.5945 3.45086 30.0001H46.5497C44.8799 40.5945 35.7254 48.3828 25.0003 48.3333ZM47.5003 28.3334H2.50037C2.04012 28.3334 1.66707 27.9603 1.66707 27.5001C1.66707 27.0398 2.04012 26.6668 2.50037 26.6668H47.5003C47.9605 26.6668 48.3336 27.0399 48.3336 27.5001C48.3336 27.9602 47.9604 28.3334 47.5003 28.3334Z" fill="#41AA3F"/>
<path d="M6.84363 35.3589C9.55486 40.8897 14.6407 44.8818 20.6571 46.202C21.1067 46.299 21.5499 46.0136 21.6476 45.5641C21.7453 45.1146 21.4604 44.671 21.0111 44.5727C15.4943 43.3637 10.8304 39.7039 8.34431 34.633C8.21463 34.3649 7.95183 34.1864 7.65486 34.1646C7.35789 34.1428 7.07186 34.2812 6.90457 34.5276C6.73709 34.774 6.71395 35.0909 6.84363 35.3589Z" fill="#41AA3F"/>
<path d="M25.8561 16.0519C25.9327 16.3415 26.1588 16.5675 26.4484 16.6442C26.7379 16.7209 27.0462 16.6362 27.2561 16.4225L28.0894 15.5892C28.4098 15.2629 28.4073 14.7395 28.0841 14.4162C27.7609 14.0928 27.2373 14.0905 26.9111 14.4109L26.0778 15.2442C25.8641 15.4541 25.7794 15.7625 25.8561 16.0519Z" fill="#41AA3F"/>
<path d="M31.0778 18.0892C31.2338 18.2458 31.4458 18.3337 31.6669 18.3334C32.0039 18.3333 32.3077 18.1302 32.4366 17.8189C32.5655 17.5076 32.4944 17.1492 32.2561 16.9109L31.4228 16.0776C31.0965 15.7572 30.5731 15.7596 30.2497 16.0829C29.9264 16.4061 29.924 16.9297 30.2445 17.2559L31.0778 18.0892Z" fill="#41AA3F"/>
<path d="M25.615 22.4777C25.9046 22.5543 26.2129 22.4697 26.4228 22.256L27.2561 21.4227C27.5765 21.0964 27.574 20.573 27.2508 20.2497C26.9275 19.9263 26.404 19.924 26.0777 20.2444L25.2444 21.0777C25.0308 21.2876 24.9461 21.596 25.0228 21.8854C25.0994 22.1749 25.3255 22.401 25.615 22.4777Z" fill="#41AA3F"/>
<path d="M18.115 22.4777C18.4046 22.5543 18.7129 22.4697 18.9228 22.256L19.7561 21.4227C20.0765 21.0964 20.074 20.573 19.7508 20.2497C19.4275 19.9263 18.904 19.924 18.5777 20.2444L17.7444 21.0777C17.5308 21.2876 17.4461 21.596 17.5228 21.8854C17.5994 22.1749 17.8255 22.401 18.115 22.4777Z" fill="#41AA3F"/>
<path d="M25.8336 11.6667C26.0546 11.6668 26.2666 11.579 26.423 11.4227C26.5792 11.2664 26.667 11.0544 26.667 10.8333V10C26.667 9.53979 26.2939 9.16675 25.8337 9.16675C25.3736 9.16675 25.0004 9.53979 25.0004 10V10.8333C25.0003 11.0543 25.0881 11.2664 25.2445 11.4227C25.4006 11.5789 25.6125 11.6667 25.8336 11.6667Z" fill="#41AA3F"/>
<path d="M21.9111 18.0892C22.2373 18.4096 22.7608 18.4072 23.0841 18.084C23.4074 17.7606 23.4098 17.2372 23.0894 16.9109L22.2561 16.0776C21.9298 15.7572 21.4064 15.7596 21.083 16.0829C20.7597 16.4061 20.7574 16.9297 21.0778 17.2559L21.9111 18.0892Z" fill="#41AA3F"/>
<path d="M37.2825 23.3091C37.5714 23.3858 37.8793 23.3019 38.0894 23.0893L38.9227 22.256C39.079 22.0997 39.1668 21.8878 39.1668 21.6668C39.1668 21.4458 39.079 21.2339 38.9227 21.0776C38.7664 20.9213 38.5545 20.8335 38.3335 20.8335C38.1125 20.8335 37.9006 20.9213 37.7444 21.0776L36.9111 21.9109C36.6984 22.121 36.6145 22.4289 36.6912 22.7178C36.768 23.0066 36.9937 23.2323 37.2825 23.3091Z" fill="#41AA3F"/>
<path d="M31.0831 21.0829C30.7598 21.4063 30.7574 21.9297 31.0778 22.256L31.9111 23.0893C32.2374 23.4097 32.7608 23.4072 33.0842 23.084C33.4075 22.7607 33.4099 22.2372 33.0894 21.9109L32.2561 21.0776C31.9299 20.7572 31.4063 20.7596 31.0831 21.0829Z" fill="#41AA3F"/>
<path d="M13.9484 16.6442C14.238 16.7209 14.5463 16.6362 14.7561 16.4225L15.5894 15.5892C15.9098 15.2629 15.9074 14.7395 15.5842 14.4162C15.2609 14.0928 14.7374 14.0905 14.4111 14.4109L13.5778 15.2442C13.3641 15.4541 13.2795 15.7625 13.3561 16.0519C13.4328 16.3415 13.6589 16.5675 13.9484 16.6442Z" fill="#41AA3F"/>
<path d="M12.5002 22.5C12.9605 22.5 13.3335 22.1269 13.3335 21.6667V20.8334C13.3336 20.6124 13.2458 20.4004 13.0895 20.244C12.9332 20.0878 12.7212 20 12.5001 20C12.2791 19.9999 12.0671 20.0877 11.9108 20.244C11.7545 20.4003 11.6667 20.6123 11.6667 20.8334V21.6667C11.6669 22.1268 12.0401 22.5 12.5002 22.5Z" fill="#41AA3F"/>
</svg>
