<svg width="1136" height="139" viewBox="0 0 1136 139" fill="none" xmlns="http://www.w3.org/2000/svg">
<g opacity="0.4">
<path d="M0 1.5602H25.4613V48.0827H43.2416V1.5602H68.8451V116.448H43.2416V66.2378H25.4613V116.448H0V1.5602Z" fill="white"/>
<path d="M109.719 1.5602H138.736L160.214 116.448H136.745L132.904 92.1939H115.977L111.994 116.448H87.9556L109.719 1.5602ZM130.486 77.0173L124.37 32.1969L118.253 77.0173H130.486Z" fill="white"/>
<path d="M169.109 1.5602H190.872L203.247 79.5704L214.769 1.5602H237.812L216.76 116.448H189.876L169.109 1.5602Z" fill="white"/>
<path d="M256.498 1.5602H308.274V18.8643H281.959V47.3735H302.015V64.9612H281.959V99.2857H308.558V116.448H256.498V1.5602Z" fill="white"/>
<path d="M429.766 139C426.353 137.582 422.275 134.792 417.534 130.632C412.792 126.566 408.999 122.358 406.154 118.008C405.68 118.103 404.874 118.15 403.736 118.15C391.314 118.15 382.447 114.982 377.137 108.647C371.826 102.217 369.171 92.7612 369.171 80.2796V37.5867C369.171 25.1051 371.826 15.7439 377.137 9.50307C382.447 3.16769 391.314 0 403.736 0C416.253 0 425.167 3.16769 430.478 9.50307C435.883 15.8384 438.585 25.1997 438.585 37.5867V80.2796C438.585 88.6952 437.353 95.7398 434.887 101.413C432.516 106.992 428.676 111.153 423.365 113.895C428.202 119.096 432.137 122.452 435.172 123.965L429.766 139ZM403.736 100.137C407.34 100.137 409.71 98.9548 410.848 96.5908C411.986 94.1323 412.555 90.8228 412.555 86.6622V31.3459C412.555 27.0908 411.986 23.7813 410.848 21.4174C409.71 19.0534 407.34 17.8714 403.736 17.8714C400.133 17.8714 397.809 19.0534 396.766 21.4174C395.723 23.6867 395.202 26.9963 395.202 31.3459V86.6622C395.202 90.8228 395.723 94.1323 396.766 96.5908C397.809 98.9548 400.133 100.137 403.736 100.137Z" fill="white"/>
<path d="M494.478 118.15C485.848 118.15 479.021 116.779 473.995 114.037C468.969 111.2 465.413 107.087 463.327 101.697C461.335 96.2126 460.339 89.2626 460.339 80.8469V1.5602H485.516V84.6765C485.516 89.3099 486.085 92.9976 487.223 95.7398C488.456 98.482 490.874 99.8531 494.478 99.8531C498.081 99.8531 500.452 98.482 501.59 95.7398C502.728 92.9976 503.297 89.3099 503.297 84.6765V1.5602H528.616V80.8469C528.616 89.2626 527.573 96.2126 525.486 101.697C523.4 107.087 519.844 111.2 514.818 114.037C509.887 116.779 503.107 118.15 494.478 118.15Z" fill="white"/>
<path d="M551.928 1.5602H603.704V18.8643H577.389V47.3735H597.445V64.9612H577.389V99.2857H603.988V116.448H551.928V1.5602Z" fill="white"/>
<path d="M653.242 118.15C642.242 118.15 634.039 115.266 628.634 109.498C623.324 103.635 620.479 94.3687 620.099 81.698L641.862 78.4357C641.957 85.7167 642.811 90.9646 644.423 94.1796C646.13 97.3 648.643 98.8602 651.962 98.8602C656.229 98.8602 658.363 96.0707 658.363 90.4918C658.363 86.0476 657.319 82.218 655.233 79.0031C653.242 75.7881 650.065 72.3367 645.703 68.649L635.746 59.9969C630.815 55.8364 626.974 51.4395 624.224 46.8061C621.569 42.0782 620.242 36.4993 620.242 30.0694C620.242 20.4245 623.087 13.0017 628.776 7.80102C634.561 2.60034 642.479 0 652.531 0C663.436 0 670.832 3.16769 674.72 9.50307C678.703 15.8384 680.837 23.5449 681.121 32.6225L659.216 35.3173C659.026 29.3602 658.457 25.1051 657.509 22.552C656.656 19.9044 654.712 18.5806 651.677 18.5806C649.496 18.5806 647.789 19.5262 646.556 21.4174C645.419 23.214 644.85 25.2469 644.85 27.5163C644.85 31.3932 645.703 34.6554 647.41 37.3031C649.212 39.9507 652.057 42.9765 655.944 46.3806L665.475 54.749C671.164 59.5714 675.574 64.6776 678.703 70.0674C681.833 75.4571 683.397 81.8398 683.397 89.2153C683.397 94.6051 682.117 99.5221 679.557 103.966C677.091 108.316 673.582 111.767 669.031 114.32C664.479 116.873 659.216 118.15 653.242 118.15Z" fill="white"/>
<path d="M713.221 20.4245H695.868V1.5602H756.036V20.4245H738.825V116.448H713.221V20.4245Z" fill="white"/>
<path d="M773.434 1.5602H798.895V116.448H773.434V1.5602Z" fill="white"/>
<path d="M856.188 118.15C843.765 118.15 834.899 114.982 829.589 108.647C824.278 102.217 821.623 92.7612 821.623 80.2796V37.5867C821.623 25.1051 824.278 15.7439 829.589 9.50307C834.899 3.16769 843.765 0 856.188 0C868.705 0 877.619 3.16769 882.929 9.50307C888.334 15.8384 891.037 25.1997 891.037 37.5867V80.2796C891.037 92.7612 888.334 102.217 882.929 108.647C877.619 114.982 868.705 118.15 856.188 118.15ZM856.188 100.137C859.791 100.137 862.162 98.9548 863.3 96.5908C864.438 94.1323 865.007 90.8228 865.007 86.6622V31.3459C865.007 27.0908 864.438 23.7813 863.3 21.4174C862.162 19.0534 859.791 17.8714 856.188 17.8714C852.774 17.8714 850.498 19.1007 849.36 21.5592C848.222 23.9231 847.653 27.1854 847.653 31.3459V86.6622C847.653 90.8228 848.175 94.1323 849.218 96.5908C850.261 98.9548 852.584 100.137 856.188 100.137Z" fill="white"/>
<path d="M913.645 1.5602H931.567L955.179 56.8765V1.5602H976.231V116.448H959.02L935.408 56.8765V116.448H913.645V1.5602Z" fill="white"/>
<path d="M1031.07 118.15C1020.07 118.15 1011.87 115.266 1006.46 109.498C1001.15 103.635 998.309 94.3687 997.93 81.698L1019.69 78.4357C1019.79 85.7167 1020.64 90.9646 1022.25 94.1796C1023.96 97.3 1026.47 98.8602 1029.79 98.8602C1034.06 98.8602 1036.19 96.0707 1036.19 90.4918C1036.19 86.0476 1035.15 82.218 1033.06 79.0031C1031.07 75.7881 1027.9 72.3367 1023.53 68.649L1013.58 59.9969C1008.65 55.8364 1004.8 51.4395 1002.05 46.8061C999.4 42.0782 998.072 36.4993 998.072 30.0694C998.072 20.4245 1000.92 13.0017 1006.61 7.80102C1012.39 2.60034 1020.31 0 1030.36 0C1041.27 0 1048.66 3.16769 1052.55 9.50307C1056.53 15.8384 1058.67 23.5449 1058.95 32.6225L1037.05 35.3173C1036.86 29.3602 1036.29 25.1051 1035.34 22.552C1034.49 19.9044 1032.54 18.5806 1029.51 18.5806C1027.33 18.5806 1025.62 19.5262 1024.39 21.4174C1023.25 23.214 1022.68 25.2469 1022.68 27.5163C1022.68 31.3932 1023.53 34.6554 1025.24 37.3031C1027.04 39.9507 1029.89 42.9765 1033.77 46.3806L1043.31 54.749C1048.99 59.5714 1053.4 64.6776 1056.53 70.0674C1059.66 75.4571 1061.23 81.8398 1061.23 89.2153C1061.23 94.6051 1059.95 99.5221 1057.39 103.966C1054.92 108.316 1051.41 111.767 1046.86 114.32C1042.31 116.873 1037.05 118.15 1031.07 118.15Z" fill="white"/>
<path d="M1090.48 67.9398C1097.31 62.6446 1102.76 56.6874 1106.84 50.0684C1111.01 43.4493 1113.1 36.6412 1113.1 29.6439C1113.1 23.0248 1110.59 19.7153 1105.56 19.7153C1103.28 19.7153 1101.48 20.3772 1100.16 21.701C1098.92 23.0248 1098.31 24.8687 1098.31 27.2327C1098.31 29.502 1098.87 32.1024 1100.01 35.0337L1079.1 39.8561C1077.49 35.2228 1076.69 30.7786 1076.69 26.5235C1076.69 18.2024 1079.25 11.7252 1084.37 7.09184C1089.49 2.36395 1096.74 0 1106.13 0C1115.61 0 1122.96 2.50578 1128.18 7.51735C1133.39 12.5289 1136 19.668 1136 28.9347C1136 37.3503 1133.91 45.1986 1129.74 52.4796C1125.57 59.7605 1119.5 66.3796 1111.53 72.3367V86.2367H1090.48V67.9398ZM1089.77 94.4633H1112.39V116.448H1089.77V94.4633Z" fill="white"/>
</g>
</svg>
