<svg width="65" height="65" viewBox="0 0 65 65" fill="none" xmlns="http://www.w3.org/2000/svg">
<path d="M29.3811 1.57069C28.0323 0.219774 26.0314 -0.313227 24.1681 0.181857C23.7911 0.281523 23.4964 0.575107 23.3978 0.952107C22.9038 2.81869 23.4368 4.81636 24.7866 6.16511C25.8017 7.18236 27.1862 7.73486 28.6054 7.73486C29.0701 7.73486 29.5392 7.67527 29.9996 7.55394C30.3766 7.45427 30.6713 7.15961 30.7699 6.78369C31.2639 4.91711 30.7309 2.91944 29.3811 1.57069ZM28.782 5.56602C27.8601 5.61261 26.9761 5.29302 26.3174 4.63327C25.6576 3.97352 25.3283 3.08519 25.3846 2.16869C26.3001 2.11344 27.1895 2.44061 27.8492 3.10144C28.509 3.76119 28.8383 4.64952 28.782 5.56602Z" fill="#C4C4C4" fill-opacity="0.85"/>
<path d="M38.5548 15.2543C38.363 14.9173 38.0044 14.7007 37.6166 14.7007C37.6155 14.7007 37.6144 14.7007 37.6134 14.7007C35.6829 14.7007 33.8899 15.7515 32.9366 17.4047C31.9822 19.0568 31.9854 21.1378 32.9442 22.8138C33.137 23.1507 33.4956 23.3674 33.8834 23.3674C33.8845 23.3674 33.8856 23.3674 33.8867 23.3674C35.8172 23.3674 37.609 22.3165 38.5634 20.6634C39.5168 19.0102 39.5146 16.9302 38.5548 15.2543ZM36.6882 19.5757C36.2213 20.3839 35.4489 20.9309 34.5486 21.114C34.2572 20.243 34.3449 19.3005 34.8119 18.4924C35.2788 17.6842 36.0512 17.1371 36.9514 16.9529C37.2418 17.8252 37.154 18.7675 36.6882 19.5757Z" fill="#C4C4C4" fill-opacity="0.85"/>
<path d="M14.625 23.3674C14.5958 23.3674 14.5698 23.375 14.5405 23.376L12.6826 21.5181C12.259 21.0945 11.5743 21.0945 11.1508 21.5181C10.7272 21.9417 10.7272 22.6264 11.1508 23.05L12.2926 24.1918C11.4108 24.8873 10.8333 25.9522 10.8333 27.159C10.8333 29.2499 12.5342 30.9507 14.625 30.9507C16.7158 30.9507 18.4167 29.2499 18.4167 27.159C18.4167 25.0682 16.7158 23.3674 14.625 23.3674ZM14.625 28.784C13.7291 28.784 13 28.055 13 27.159C13 26.2631 13.7291 25.534 14.625 25.534C15.5209 25.534 16.25 26.2631 16.25 27.159C16.25 28.055 15.5209 28.784 14.625 28.784Z" fill="#C4C4C4" fill-opacity="0.85"/>
<path d="M53.7908 6.8583L54.9326 5.71646C55.3562 5.29288 55.3562 4.60821 54.9326 4.18463C54.509 3.76105 53.8244 3.76105 53.4008 4.18463L51.5429 6.04255C51.5136 6.04146 51.4876 6.03388 51.4584 6.03388C49.3675 6.03388 47.6667 7.73471 47.6667 9.82555C47.6667 11.9164 49.3675 13.6172 51.4584 13.6172C53.5492 13.6172 55.25 11.9164 55.25 9.82555C55.25 8.61871 54.6726 7.5538 53.7908 6.8583ZM51.4584 11.4505C50.5624 11.4505 49.8334 10.7215 49.8334 9.82555C49.8334 8.92963 50.5624 8.20055 51.4584 8.20055C52.3543 8.20055 53.0834 8.92963 53.0834 9.82555C53.0834 10.7215 52.3543 11.4505 51.4584 11.4505Z" fill="#C4C4C4" fill-opacity="0.85"/>
<path d="M63.9167 58.0341H52.4778L53.8103 54.7841H56.3333C58.1252 54.7841 59.5833 53.3259 59.5833 51.5341C59.5833 50.6555 59.2399 49.8387 58.6365 49.2504C58.0288 48.6275 57.2119 48.2841 56.3333 48.2841H55.2478C55.2435 46.3363 55.2348 43.1448 55.2186 42.8653C55.1937 42.4374 55.1503 42.0138 55.0951 41.5934C55.549 41.7538 56.0289 41.8491 56.5262 41.8491C56.7753 41.8491 57.0278 41.8274 57.2813 41.783C59.6343 41.3681 61.2116 39.1169 60.7967 36.7629C60.6634 36.011 60.3308 35.3123 59.8379 34.7316C60.1033 34.0166 60.1759 33.2464 60.0438 32.4945C59.8423 31.3549 59.2096 30.3614 58.2617 29.6974C57.3138 29.0333 56.1622 28.7765 55.0247 28.9791C53.8839 29.1806 52.8905 29.8133 52.2264 30.7612C51.7747 31.4058 51.5125 32.1435 51.454 32.9084L51.22 32.9495C50.1822 31.7373 48.9981 30.6919 47.7035 29.8252L48.5593 28.5024L50.3024 28.6964C50.3436 28.7007 50.3837 28.7029 50.4237 28.7029C50.9676 28.7029 51.4378 28.2934 51.4984 27.7387C51.5645 27.1439 51.1366 26.6088 50.5418 26.5427L49.8756 26.469L50.9145 24.8635L52.6565 25.0574C52.6977 25.0618 52.7378 25.0639 52.7778 25.0639C53.3217 25.0639 53.7918 24.6544 53.8525 24.0998C53.9186 23.505 53.4907 22.9699 52.8959 22.9038L52.2297 22.8301L53.0433 21.5734C53.3683 21.0708 53.2242 20.4002 52.7226 20.0752C52.2199 19.7502 51.5493 19.8954 51.2243 20.3959L50.4108 21.6536L50.0706 21.0773C49.7673 20.5616 49.1021 20.3894 48.5875 20.6938C48.0718 20.9982 47.9007 21.6623 48.204 22.1769L49.0945 23.687L48.0567 25.2914L47.7165 24.7151C47.4132 24.1994 46.7469 24.0272 46.2334 24.3316C45.7178 24.6349 45.5466 25.3001 45.8499 25.8147L46.7404 27.3249L45.8326 28.7278C41.1038 26.3466 35.3698 26.0964 30.3626 28.4093L29.4309 28.8394L28.4505 27.3249L29.341 25.8147C29.6454 25.299 29.4732 24.6349 28.9575 24.3316C28.4429 24.0272 27.7778 24.1984 27.4744 24.7151L27.1343 25.2914L26.0964 23.687L26.9869 22.1769C27.2913 21.6612 27.1202 20.9982 26.6034 20.6938C26.0888 20.3894 25.4248 20.5605 25.1203 21.0773L24.7802 21.6536L23.9666 20.3959C23.6416 19.8943 22.971 19.7491 22.4683 20.0752C21.9668 20.4002 21.8227 21.0708 22.1477 21.5734L22.9613 22.8301L22.295 22.9038C21.7003 22.9699 21.2723 23.505 21.3384 24.0998C21.4002 24.6544 21.8692 25.0639 22.4131 25.0639C22.4532 25.0639 22.4933 25.0618 22.5344 25.0574L24.2764 24.8635L25.3153 26.469L24.6502 26.5427C24.0554 26.6088 23.6275 27.1439 23.6936 27.7387C23.7553 28.2934 24.2244 28.7029 24.7683 28.7029C24.8083 28.7029 24.8484 28.7007 24.8896 28.6964L26.6316 28.5024L27.4441 29.7569L17.0246 34.5659C12.0857 36.8452 8.02858 42.9184 7.6245 48.4694C6.34508 48.9081 5.41667 50.1084 5.41667 51.5341C5.41667 53.3259 6.87483 54.7841 8.66667 54.7841H11.3111L13.3131 58.0341H1.08333C0.485333 58.0341 0 58.5194 0 59.1174V61.2841C0 63.0759 1.47442 64.5341 3.28792 64.5341H61.7121C63.5256 64.5341 65 63.0759 65 61.2841V59.1174C65 58.5194 64.5147 58.0341 63.9167 58.0341ZM50.6664 35.2505C50.921 35.3014 51.1778 35.2559 51.4128 35.1184L52.7638 34.8789C53.352 34.7749 53.7463 34.2127 53.6423 33.6244C53.4354 32.4479 54.223 31.3224 55.4006 31.1144C55.9715 31.0125 56.5457 31.1414 57.0191 31.4729C57.4936 31.8055 57.8088 32.3017 57.9096 32.8715C58.0006 33.3894 57.8923 33.9278 57.6041 34.3893C57.3105 34.8594 57.4188 35.4759 57.8554 35.8171C58.1588 36.0544 58.5455 36.4758 58.6625 37.1388C58.7633 37.7086 58.6354 38.2839 58.3039 38.7584C57.9713 39.2329 57.4752 39.5481 56.9043 39.6489C55.7299 39.8547 54.6022 39.0682 54.3942 37.8917C54.301 37.3663 53.8438 36.9969 53.3282 36.9969C53.2697 36.9969 53.2112 37.0023 53.1516 37.012C52.9978 37.0023 52.8407 37.0185 52.6879 37.0792C52.676 37.0835 52.6695 37.0933 52.6576 37.0987L47.8292 37.9545L47.6667 36.8907C47.6667 36.8896 47.6667 36.8885 47.6667 36.8864C47.6667 36.8842 47.6667 36.8842 47.6667 36.882L47.4543 35.8193L50.6664 35.2505ZM17.9313 36.5343L31.2693 30.3777C37.1508 27.665 44.1621 28.9704 48.6785 33.3991L46.1121 33.8519C44.122 31.6051 40.5167 30.4373 36.6979 31.1111C31.4037 32.0449 27.6868 36.1551 28.4137 40.2729C28.7755 42.3269 30.1513 44.0537 32.2887 45.1359C33.7285 45.865 35.4023 46.2409 37.1475 46.2409C37.8679 46.2409 38.5992 46.177 39.3326 46.0481C43.1535 45.3743 46.1413 43.0451 47.242 40.2534L52.3748 39.3477C52.7497 40.5166 52.9826 41.7364 53.0552 42.9866C53.066 43.2401 53.0768 46.0351 53.0812 48.2841H9.80417C10.2776 43.6366 13.8071 38.4388 17.9313 36.5343ZM38.9556 43.9139C36.9059 44.2747 34.8844 44.0223 33.2681 43.2033C31.7547 42.4363 30.7883 41.2619 30.5478 39.8959C30.0289 36.9546 32.9572 33.9711 37.0749 33.2442C37.6913 33.1348 38.3002 33.0839 38.8917 33.0839C42.25 33.0839 45.0428 34.7619 45.4838 37.2623C46.0016 40.2046 43.0733 43.1881 38.9556 43.9139ZM11.9167 52.6174H8.66667C8.06975 52.6174 7.58333 52.131 7.58333 51.5341C7.58333 50.9372 8.06975 50.4508 8.66667 50.4508H54.1667H56.3333C56.6226 50.4508 56.8891 50.5613 57.1047 50.7823C57.3062 50.9784 57.4167 51.2449 57.4167 51.5341C57.4167 52.131 56.9303 52.6174 56.3333 52.6174H53.0833C52.6435 52.6174 52.2481 52.8829 52.0813 53.2902L50.1356 58.0341H15.8589L13.8569 54.7841H18.4167C19.0147 54.7841 19.5 54.2988 19.5 53.7008C19.5 53.1028 19.0147 52.6174 18.4167 52.6174H11.9167ZM62.8333 61.2841C62.8333 61.881 62.3307 62.3674 61.7121 62.3674H3.28792C2.66933 62.3674 2.16667 61.881 2.16667 61.2841V60.2008H15.2533H50.8625H62.8333V61.2841Z" fill="#C4C4C4" fill-opacity="0.85"/>
<path d="M24.9167 52.6172H22.75C22.152 52.6172 21.6667 53.1025 21.6667 53.7005C21.6667 54.2985 22.152 54.7839 22.75 54.7839H24.9167C25.5147 54.7839 26 54.2985 26 53.7005C26 53.1025 25.5147 52.6172 24.9167 52.6172Z" fill="#C4C4C4" fill-opacity="0.85"/>
<path d="M26.9696 35.8832C26.702 35.348 26.052 35.1292 25.5157 35.3979L22.3795 36.9655C21.2713 37.5201 20.5833 38.6349 20.5833 39.8731V42.8675C20.5833 43.4644 20.0969 43.9508 19.5 43.9508C18.9031 43.9508 18.4167 43.4644 18.4167 42.8675V41.7841C18.4167 41.1861 17.9313 40.7008 17.3333 40.7008C16.7353 40.7008 16.25 41.1861 16.25 41.7841V42.8675C16.25 44.6593 17.7082 46.1175 19.5 46.1175C21.2918 46.1175 22.75 44.6593 22.75 42.8675V39.8731C22.75 39.4604 22.9797 39.0888 23.3491 38.9046L26.4853 37.337C27.0205 37.0695 27.2372 36.4184 26.9696 35.8832Z" fill="#C4C4C4" fill-opacity="0.85"/>
</svg>
