<svg width="25" height="55" viewBox="0 0 25 55" fill="none" xmlns="http://www.w3.org/2000/svg">
<path d="M24.0422 36.4871C24.0422 35.2635 23.4702 34.1732 22.5727 33.4734C23.4701 32.7735 24.0523 31.6833 24.0523 30.4597C24.0523 29.1714 23.3855 28.0308 22.4058 27.3382C23.3922 26.559 24.0018 25.3535 24.0018 24.0017V15.9779L16.2773 5.91978H17.9745V0H6.02731V5.91978H7.8321L0 15.9779V24.0019C0 25.3537 0.661825 26.5591 1.64828 27.3384C0.668485 28.031 0.0403912 29.1715 0.0403912 30.4599C0.0403912 31.6835 0.625945 32.7737 1.52334 33.4736C0.625945 34.1734 0.0504882 35.2637 0.0504882 36.4873C0.0504882 37.7756 0.666765 38.9162 1.64656 39.6088C0.660105 40.388 0 41.5935 0 42.9453V49.8337C0 52.1779 1.96109 54.1389 4.30524 54.1389H8.61048V54.0681C9.32708 54.6181 10.2225 55 11.1936 55H12.9157C13.8868 55 14.7823 54.6182 15.4989 54.0681V54.1389H19.8041C22.1484 54.1389 24.0017 52.1778 24.0017 49.8337V42.9453C24.0017 41.5935 23.3937 40.3881 22.4073 39.6088C23.3872 38.9161 24.0422 37.7755 24.0422 36.4871ZM7.64186 4.30524V1.61444H16.3601V4.30524H7.64186ZM9.86903 5.91978H14.2402L21.6089 15.499H2.50034L9.86903 5.91978ZM20.2348 34.3345C21.4514 34.3345 22.4412 35.3243 22.4412 36.5409C22.4412 37.7576 21.4514 38.7473 20.2348 38.7473H18.0821V40.3618H19.8042C21.2583 40.3618 22.3874 41.4909 22.3874 42.9449V49.8333C22.3874 51.2874 21.2584 52.5241 19.8042 52.5241H16.7771C17.0268 51.8783 17.1672 51.3281 17.1672 50.6944H15.5528C15.5528 52.1485 14.3699 53.3852 12.9158 53.3852H11.1936C9.73969 53.3852 8.55666 52.1486 8.55666 50.6944H6.94222C6.94222 51.3282 7.08262 51.8784 7.33237 52.5241H4.30524C2.85129 52.5241 1.61444 51.2875 1.61444 49.8333V42.9449C1.61444 41.4909 2.85118 40.3618 4.30524 40.3618H12.9158V38.7473H3.8748C2.65814 38.7473 1.66836 37.7576 1.66836 36.5409C1.66836 35.3243 2.65814 34.3345 3.8748 34.3345H12.9158V32.72H3.8748C2.65814 32.72 1.66836 31.7303 1.66836 30.5136C1.66836 29.2969 2.65814 28.3072 3.8748 28.3072H12.9158V26.6927H4.30524C2.85129 26.6927 1.61444 25.4561 1.61444 24.0019V17.1135H22.3874V24.0019C22.3874 25.456 21.2584 26.6927 19.8042 26.6927H18.0821V28.3072H20.2348C21.4514 28.3072 22.4412 29.2969 22.4412 30.5136C22.4412 31.7303 21.4514 32.72 20.2348 32.72H18.0821V34.3345H20.2348Z" fill="#C4C4C4" fill-opacity="0.85"/>
<path d="M7.74978 12.0547H6.02771V13.6691H7.74978V12.0547Z" fill="#C4C4C4" fill-opacity="0.85"/>
<path d="M9.47195 10.3325H7.74988V11.947H9.47195V10.3325Z" fill="#C4C4C4" fill-opacity="0.85"/>
<path d="M16.3604 32.72H14.6383V34.3344H16.3604V32.72Z" fill="#C4C4C4" fill-opacity="0.85"/>
<path d="M16.3604 26.6926H14.6383V28.3071H16.3604V26.6926Z" fill="#C4C4C4" fill-opacity="0.85"/>
<path d="M16.3604 38.7473H14.6383V40.3618H16.3604V38.7473Z" fill="#C4C4C4" fill-opacity="0.85"/>
</svg>
