<svg width="103" height="108" viewBox="0 0 103 108" fill="none" xmlns="http://www.w3.org/2000/svg">
<path d="M1.26781 73.8H4.98781C6.45448 73.8 7.54115 74.1333 8.24781 74.8C8.95448 75.4533 9.30781 76.4733 9.30781 77.86C9.30781 79.9267 8.53448 81.0667 6.98781 81.28C7.94781 81.5067 8.64781 81.96 9.08781 82.64C9.52781 83.3067 9.74781 84.22 9.74781 85.38C9.74781 86.8333 9.40115 87.9667 8.70781 88.78C8.02781 89.5933 6.98781 90 5.58781 90H1.26781V73.8ZM4.86781 80.56C5.80115 80.56 6.44781 80.36 6.80781 79.96C7.16781 79.5467 7.34781 78.8467 7.34781 77.86C7.34781 77.14 7.23448 76.6133 7.00781 76.28C6.79448 75.9333 6.46781 75.7133 6.02781 75.62C5.58781 75.5267 4.93448 75.48 4.06781 75.48H3.52781V80.56H4.86781ZM5.04781 88.38C5.71448 88.38 6.22781 88.28 6.58781 88.08C6.96115 87.8667 7.22115 87.5467 7.36781 87.12C7.51448 86.6933 7.58781 86.1133 7.58781 85.38C7.58781 84.34 7.37448 83.5667 6.94781 83.06C6.52115 82.54 5.82781 82.28 4.86781 82.28H3.52781V88.38H5.04781ZM12.7561 73.8H16.0161C17.6561 73.8 18.8561 74.14 19.6161 74.82C20.3894 75.4867 20.7761 76.58 20.7761 78.1C20.7761 80.18 20.1094 81.44 18.7761 81.88L21.0761 90H18.8961L16.7761 82.4H15.0161V90H12.7561V73.8ZM15.8761 80.78C16.8494 80.78 17.5428 80.5867 17.9561 80.2C18.3828 79.8133 18.5961 79.1133 18.5961 78.1C18.5961 77.4333 18.5228 76.9133 18.3761 76.54C18.2294 76.1533 17.9694 75.8733 17.5961 75.7C17.2228 75.5133 16.6961 75.42 16.0161 75.42H15.0161V80.78H15.8761ZM24.1272 73.8H30.4072V75.48H26.3872V80.84H29.6472V82.44H26.3872V88.38H30.4472V90H24.1272V73.8ZM35.8317 73.8H38.0117L41.4717 90H39.3317L38.5917 85.92H35.2917L34.5117 90H32.3917L35.8317 73.8ZM38.2917 84.3L36.9317 77L35.5917 84.3H38.2917ZM48.0973 90.18C46.4973 90.18 45.3707 89.7067 44.7173 88.76C44.064 87.8 43.7373 86.48 43.7373 84.8V79.08C43.7373 77.3067 44.0573 75.96 44.6973 75.04C45.3373 74.12 46.4707 73.66 48.0973 73.66C49.5507 73.66 50.5907 74.0533 51.2173 74.84C51.8573 75.6267 52.1773 76.7867 52.1773 78.32V79.6H50.0373V78.46C50.0373 77.7133 50.004 77.14 49.9373 76.74C49.8707 76.34 49.6973 76.02 49.4173 75.78C49.1507 75.54 48.7173 75.42 48.1173 75.42C47.504 75.42 47.044 75.5533 46.7373 75.82C46.444 76.0733 46.2507 76.4333 46.1573 76.9C46.064 77.3533 46.0173 77.9667 46.0173 78.74V85.16C46.0173 85.9867 46.084 86.6333 46.2173 87.1C46.3507 87.5667 46.564 87.9 46.8573 88.1C47.164 88.3 47.584 88.4 48.1173 88.4C48.6907 88.4 49.1173 88.2733 49.3973 88.02C49.6773 87.7667 49.8507 87.42 49.9173 86.98C49.9973 86.54 50.0373 85.94 50.0373 85.18V83.98H52.1773V85.18C52.1773 86.7933 51.8707 88.0333 51.2573 88.9C50.6573 89.7533 49.604 90.18 48.0973 90.18ZM55.3303 73.8H57.5903V81.44L61.3103 73.8H63.4103L60.2103 80.94L63.9303 90H61.7303L58.6303 82.4L57.5903 84.28V90H55.3303V73.8ZM66.2327 73.8H72.4927V75.42H68.4927V80.82H71.5927V82.42H68.4927V90H66.2327V73.8ZM77.2536 73.8H79.4336L82.8936 90H80.7536L80.0136 85.92H76.7136L75.9336 90H73.8136L77.2536 73.8ZM79.7136 84.3L78.3536 77L77.0136 84.3H79.7136ZM89.3573 90.18C87.9973 90.18 86.9573 89.76 86.2373 88.92C85.5307 88.08 85.1373 86.9267 85.0573 85.46L87.0573 84.92C87.124 85.96 87.324 86.8 87.6573 87.44C88.004 88.08 88.5707 88.4 89.3573 88.4C89.944 88.4 90.384 88.24 90.6773 87.92C90.984 87.5867 91.1373 87.1133 91.1373 86.5C91.1373 85.8333 90.9973 85.28 90.7173 84.84C90.4373 84.4 89.9907 83.9133 89.3773 83.38L86.6573 80.98C86.1107 80.5 85.7107 79.9867 85.4573 79.44C85.2173 78.88 85.0973 78.2 85.0973 77.4C85.0973 76.2133 85.4373 75.2933 86.1173 74.64C86.7973 73.9867 87.724 73.66 88.8973 73.66C90.1773 73.66 91.144 74 91.7973 74.68C92.4507 75.36 92.844 76.4133 92.9773 77.84L91.0573 78.36C90.9907 77.4133 90.804 76.6867 90.4973 76.18C90.204 75.66 89.6707 75.4 88.8973 75.4C88.324 75.4 87.884 75.5533 87.5773 75.86C87.2707 76.1533 87.1173 76.5933 87.1173 77.18C87.1173 77.66 87.1973 78.0667 87.3573 78.4C87.5173 78.72 87.7907 79.0467 88.1773 79.38L90.9173 81.78C91.624 82.4067 92.184 83.0867 92.5973 83.82C93.024 84.5533 93.2373 85.3867 93.2373 86.32C93.2373 87.5067 92.8773 88.4467 92.1573 89.14C91.4373 89.8333 90.504 90.18 89.3573 90.18ZM97.7705 75.48H95.0305V73.8H102.69V75.48H100.03V90H97.7705V75.48Z" fill="#41AA3F"/>
<path d="M75.9715 27.1158C75.7849 25.8961 74.734 24.9965 73.5002 25H68.0045C68.7432 24.2226 69.2026 23.2219 69.3103 22.155C69.5681 19.5227 67.7316 17.145 65.1197 16.7294C64.8707 14.76 63.5511 12.7287 59.2534 12.518C58.9447 10.9862 57.8076 9.75451 56.3054 9.32463C56.9058 7.74846 56.7971 5.98987 56.0071 4.49964C54.6574 2.14847 51.4186 0.678752 46.1048 0.00658625C45.733 -0.0402886 45.3756 0.166644 45.2313 0.512542C45.0869 0.858342 45.1911 1.25805 45.4859 1.48939C47.7975 3.30257 48.2777 5.52669 46.9532 8.28791C46.0979 10.0726 44.8161 10.8335 42.6668 10.8335H41.8335C38.4513 10.8378 35.6066 13.3705 35.2112 16.7295C32.6007 17.1469 30.7659 19.5239 31.0234 22.1551C31.1311 23.222 31.5905 24.2228 32.3292 25.0001H28.5003C27.2664 24.9965 26.2155 25.8962 26.0289 27.1159C25.8423 28.3356 26.5761 29.5083 27.7546 29.8738C28.9062 38.1945 34.4517 45.2491 42.2651 48.3334H31.8337C31.3734 48.3334 31.0004 48.7065 31.0004 49.1667C31.0004 49.627 31.3734 50 31.8337 50H70.1669C70.6271 50 71.0002 49.6269 71.0002 49.1667C71.0002 48.7066 70.627 48.3334 70.1669 48.3334H59.7354C67.5487 45.2492 73.0942 38.1945 74.246 29.8738C75.4244 29.5083 76.1582 28.3355 75.9715 27.1158ZM33.5294 19.4298C34.1613 18.7319 35.0589 18.3336 36.0004 18.3334C36.2213 18.3335 36.4334 18.2457 36.5897 18.0893C36.746 17.9331 36.8337 17.7211 36.8337 17.5C36.8368 14.7398 39.0736 12.503 41.8337 12.5H42.667C45.4746 12.5 47.3142 11.3908 48.4564 9.00881C49.7035 6.40794 49.6408 4.04212 48.2981 2.05082C51.5964 2.72709 53.6989 3.82572 54.5619 5.32962C55.2146 6.46565 55.1617 7.88742 54.4004 9.67365C54.2905 9.93097 54.3173 10.2264 54.4716 10.4598C54.6259 10.6932 54.8871 10.8335 55.167 10.8333C56.5471 10.8348 57.6655 11.9532 57.667 13.3333C57.6669 13.5543 57.7547 13.7663 57.911 13.9227C58.0673 14.0789 58.2793 14.1667 58.5004 14.1667C62.982 14.1667 63.5004 16.0693 63.5004 17.5C63.5003 17.721 63.5881 17.933 63.7444 18.0893C63.9007 18.2456 64.1127 18.3334 64.3338 18.3334C65.2753 18.3337 66.1728 18.7319 66.8048 19.4298C67.4367 20.1276 67.7442 21.0601 67.6513 21.9971C67.4203 23.7422 65.9148 25.035 64.1549 25H36.1794C34.4193 25.035 32.9139 23.7422 32.6829 21.9971C32.5899 21.0602 32.8974 20.1277 33.5294 19.4298ZM51.0003 48.3333C40.2751 48.3828 31.1206 40.5945 29.4509 30.0001H72.5497C70.8799 40.5945 61.7254 48.3828 51.0003 48.3333ZM73.5003 28.3334H28.5004C28.0401 28.3334 27.6671 27.9603 27.6671 27.5001C27.6671 27.0398 28.0401 26.6668 28.5004 26.6668H73.5003C73.9605 26.6668 74.3336 27.0399 74.3336 27.5001C74.3336 27.9602 73.9604 28.3334 73.5003 28.3334Z" fill="#41AA3F"/>
<path d="M32.8436 35.3589C35.5549 40.8897 40.6407 44.8818 46.6571 46.202C47.1067 46.299 47.5499 46.0136 47.6476 45.5641C47.7453 45.1146 47.4604 44.671 47.0111 44.5727C41.4943 43.3637 36.8304 39.7039 34.3443 34.633C34.2146 34.3649 33.9518 34.1864 33.6549 34.1646C33.3579 34.1428 33.0719 34.2812 32.9046 34.5276C32.7371 34.774 32.7139 35.0909 32.8436 35.3589Z" fill="#41AA3F"/>
<path d="M51.8561 16.0519C51.9327 16.3415 52.1588 16.5675 52.4484 16.6442C52.7379 16.7209 53.0462 16.6362 53.2561 16.4225L54.0894 15.5892C54.4098 15.2629 54.4073 14.7395 54.0841 14.4162C53.7609 14.0928 53.2373 14.0905 52.9111 14.4109L52.0778 15.2442C51.8641 15.4541 51.7794 15.7625 51.8561 16.0519Z" fill="#41AA3F"/>
<path d="M57.0778 18.0892C57.2338 18.2458 57.4458 18.3337 57.6669 18.3334C58.0039 18.3333 58.3077 18.1302 58.4366 17.8189C58.5655 17.5076 58.4944 17.1492 58.2561 16.9109L57.4228 16.0776C57.0965 15.7572 56.5731 15.7596 56.2497 16.0829C55.9264 16.4061 55.924 16.9297 56.2445 17.2559L57.0778 18.0892Z" fill="#41AA3F"/>
<path d="M51.615 22.4777C51.9046 22.5543 52.2129 22.4697 52.4228 22.256L53.2561 21.4227C53.5765 21.0964 53.574 20.573 53.2508 20.2497C52.9275 19.9263 52.404 19.924 52.0777 20.2444L51.2444 21.0777C51.0308 21.2876 50.9461 21.596 51.0228 21.8854C51.0994 22.1749 51.3255 22.401 51.615 22.4777Z" fill="#41AA3F"/>
<path d="M44.115 22.4777C44.4046 22.5543 44.7129 22.4697 44.9228 22.256L45.7561 21.4227C46.0765 21.0964 46.074 20.573 45.7508 20.2497C45.4275 19.9263 44.904 19.924 44.5777 20.2444L43.7444 21.0777C43.5308 21.2876 43.4461 21.596 43.5228 21.8854C43.5994 22.1749 43.8255 22.401 44.115 22.4777Z" fill="#41AA3F"/>
<path d="M51.8336 11.6667C52.0546 11.6668 52.2666 11.579 52.423 11.4227C52.5792 11.2664 52.667 11.0544 52.667 10.8333V10C52.667 9.53979 52.2939 9.16675 51.8337 9.16675C51.3736 9.16675 51.0004 9.53979 51.0004 10V10.8333C51.0003 11.0543 51.0881 11.2664 51.2445 11.4227C51.4006 11.5789 51.6125 11.6667 51.8336 11.6667Z" fill="#41AA3F"/>
<path d="M47.9111 18.0892C48.2373 18.4096 48.7608 18.4072 49.0841 18.084C49.4074 17.7606 49.4098 17.2372 49.0894 16.9109L48.2561 16.0776C47.9298 15.7572 47.4064 15.7596 47.083 16.0829C46.7597 16.4061 46.7574 16.9297 47.0778 17.2559L47.9111 18.0892Z" fill="#41AA3F"/>
<path d="M63.2825 23.3091C63.5714 23.3858 63.8793 23.3019 64.0894 23.0893L64.9227 22.256C65.079 22.0997 65.1668 21.8878 65.1668 21.6668C65.1668 21.4458 65.079 21.2339 64.9227 21.0776C64.7664 20.9213 64.5545 20.8335 64.3335 20.8335C64.1125 20.8335 63.9006 20.9213 63.7444 21.0776L62.9111 21.9109C62.6984 22.121 62.6145 22.4289 62.6912 22.7178C62.768 23.0066 62.9937 23.2323 63.2825 23.3091Z" fill="#41AA3F"/>
<path d="M57.0831 21.0829C56.7598 21.4063 56.7574 21.9297 57.0778 22.256L57.9111 23.0893C58.2374 23.4097 58.7608 23.4072 59.0842 23.084C59.4075 22.7607 59.4099 22.2372 59.0894 21.9109L58.2561 21.0776C57.9299 20.7572 57.4063 20.7596 57.0831 21.0829Z" fill="#41AA3F"/>
<path d="M39.9484 16.6442C40.238 16.7209 40.5463 16.6362 40.7561 16.4225L41.5894 15.5892C41.9098 15.2629 41.9074 14.7395 41.5842 14.4162C41.2609 14.0928 40.7374 14.0905 40.4111 14.4109L39.5778 15.2442C39.3641 15.4541 39.2795 15.7625 39.3561 16.0519C39.4328 16.3415 39.6589 16.5675 39.9484 16.6442Z" fill="#41AA3F"/>
<path d="M38.5002 22.5C38.9605 22.5 39.3335 22.1269 39.3335 21.6667V20.8334C39.3336 20.6124 39.2458 20.4004 39.0895 20.244C38.9332 20.0878 38.7212 20 38.5001 20C38.2791 19.9999 38.0671 20.0877 37.9108 20.244C37.7545 20.4003 37.6667 20.6123 37.6667 20.8334V21.6667C37.6669 22.1268 38.0401 22.5 38.5002 22.5Z" fill="#41AA3F"/>
</svg>
