<svg width="60" height="114" viewBox="0 0 60 114" fill="none" xmlns="http://www.w3.org/2000/svg">
<path d="M4.32055 79.8H6.58055V94.38H10.7205V96H4.32055V79.8ZM17.4498 96.18C16.3164 96.18 15.4298 95.9533 14.7898 95.5C14.1631 95.0467 13.7298 94.4133 13.4898 93.6C13.2498 92.7867 13.1298 91.7667 13.1298 90.54V79.8H15.2898V90.64C15.2898 91.8667 15.4298 92.8 15.7098 93.44C16.0031 94.08 16.5831 94.4 17.4498 94.4C18.3164 94.4 18.8898 94.08 19.1698 93.44C19.4631 92.8 19.6098 91.8667 19.6098 90.64V79.8H21.7498V90.54C21.7498 91.7667 21.6298 92.7867 21.3898 93.6C21.1498 94.4133 20.7164 95.0467 20.0898 95.5C19.4631 95.9533 18.5831 96.18 17.4498 96.18ZM25.1291 79.8H26.6691L31.2691 90.56V79.8H33.1491V96H31.7091L27.0491 84.94V96H25.1291V79.8ZM40.7555 96.18C39.1555 96.18 38.0289 95.7067 37.3755 94.76C36.7222 93.8 36.3955 92.48 36.3955 90.8V85.08C36.3955 83.3067 36.7155 81.96 37.3555 81.04C37.9955 80.12 39.1289 79.66 40.7555 79.66C42.2089 79.66 43.2489 80.0533 43.8755 80.84C44.5155 81.6267 44.8355 82.7867 44.8355 84.32V85.6H42.6955V84.46C42.6955 83.7133 42.6622 83.14 42.5955 82.74C42.5289 82.34 42.3555 82.02 42.0755 81.78C41.8089 81.54 41.3755 81.42 40.7755 81.42C40.1622 81.42 39.7022 81.5533 39.3955 81.82C39.1022 82.0733 38.9089 82.4333 38.8155 82.9C38.7222 83.3533 38.6755 83.9667 38.6755 84.74V91.16C38.6755 91.9867 38.7422 92.6333 38.8755 93.1C39.0089 93.5667 39.2222 93.9 39.5155 94.1C39.8222 94.3 40.2422 94.4 40.7755 94.4C41.3489 94.4 41.7755 94.2733 42.0555 94.02C42.3355 93.7667 42.5089 93.42 42.5755 92.98C42.6555 92.54 42.6955 91.94 42.6955 91.18V89.98H44.8355V91.18C44.8355 92.7933 44.5289 94.0333 43.9155 94.9C43.3155 95.7533 42.2622 96.18 40.7555 96.18ZM47.9885 79.8H50.2485V86.8H54.4085V79.8H56.6685V96H54.4085V88.42H50.2485V96H47.9885V79.8Z" fill="#C4C4C4" fill-opacity="0.85"/>
<path d="M55.332 16.212C54.5485 15.4285 53.6184 14.807 52.5947 14.383C51.571 13.959 50.4738 13.7407 49.3658 13.7407C48.2578 13.7407 47.1606 13.959 46.1369 14.383C45.1132 14.807 44.183 15.4285 43.3995 16.212C43.3125 16.2991 43.2434 16.4025 43.1963 16.5162C43.1492 16.6299 43.1249 16.7519 43.1249 16.875C43.1249 16.9981 43.1492 17.12 43.1963 17.2338C43.2434 17.3475 43.3125 17.4508 43.3995 17.5379L46.0511 20.1895C46.227 20.3653 46.4654 20.464 46.714 20.464C46.9626 20.464 47.2011 20.3653 47.3769 20.1895C47.9043 19.662 48.6197 19.3657 49.3657 19.3657C50.1116 19.3656 50.827 19.6619 51.3545 20.1894C51.8819 20.7168 52.1783 21.4322 52.1783 22.1782C52.1783 22.9241 51.882 23.6395 51.3546 24.167C51.2675 24.254 51.1985 24.3574 51.1513 24.4711C51.1042 24.5849 51.08 24.7068 51.08 24.8299C51.08 24.953 51.1042 25.0749 51.1513 25.1887C51.1985 25.3024 51.2675 25.4058 51.3546 25.4928L54.0063 28.1445C54.0934 28.2316 54.1967 28.3007 54.3105 28.3478C54.4242 28.3949 54.5461 28.4191 54.6692 28.4191C54.7923 28.4191 54.9143 28.3949 55.028 28.3478C55.1418 28.3007 55.2451 28.2316 55.3322 28.1445C56.1157 27.361 56.7372 26.4309 57.1612 25.4072C57.5852 24.3835 57.8035 23.2863 57.8035 22.1783C57.8035 21.0703 57.5852 19.9731 57.1612 18.9494C56.7372 17.9257 56.1157 16.9955 55.3322 16.212H55.332ZM54.6218 26.1085L53.2773 24.7639C53.8727 23.8624 54.1385 22.7829 54.0297 21.708C53.921 20.6331 53.4443 19.6287 52.6804 18.8647C51.9164 18.1007 50.9121 17.624 49.8372 17.5152C48.7623 17.4063 47.6828 17.6721 46.7812 18.2674L45.4356 16.9218C46.6994 15.9759 48.2618 15.5171 49.8364 15.6298C51.411 15.7424 52.8923 16.4189 54.0085 17.5352C55.1248 18.6515 55.8013 20.1327 55.9139 21.7073C56.0265 23.2819 55.5678 24.8444 54.6218 26.1082V26.1085Z" fill="#C4C4C4" fill-opacity="0.85"/>
<path d="M12.1875 21.5577C13.5417 21.5601 14.883 21.2949 16.1344 20.7774C17.3858 20.2599 18.5226 19.5002 19.4796 18.5421C19.5667 18.455 19.6358 18.3517 19.6829 18.2379C19.73 18.1242 19.7543 18.0023 19.7543 17.8791C19.7543 17.756 19.73 17.6341 19.6829 17.5203C19.6358 17.4065 19.5667 17.3032 19.4796 17.2161L6.22137 3.95789C6.13431 3.87081 6.03095 3.80174 5.9172 3.75461C5.80344 3.70748 5.68152 3.68323 5.55838 3.68323C5.43525 3.68323 5.31332 3.70748 5.19957 3.75461C5.08581 3.80174 4.98245 3.87081 4.89539 3.95789C3.45244 5.39947 2.46961 7.23675 2.07131 9.23716C1.67301 11.2376 1.87715 13.3112 2.65788 15.1955C3.43862 17.0799 4.76085 18.6902 6.45722 19.8227C8.15359 20.9553 10.1478 21.5591 12.1875 21.5577ZM11.1258 12.3116L10.7488 15.7091C10.0414 15.4822 9.39825 15.0898 8.87292 14.5645C8.34758 14.0391 7.95517 13.396 7.72829 12.6886L11.1258 12.3116ZM7.52192 10.8254C7.59059 10.0538 7.84997 9.31144 8.27672 8.66496L10.1457 10.5341L7.52192 10.8254ZM12.9034 13.2918L14.7724 15.1608C14.126 15.5875 13.3836 15.8469 12.6121 15.9156L12.9034 13.2918ZM5.595 5.98336L6.93235 7.32059C5.98883 8.58443 5.53204 10.1458 5.64559 11.7189C5.75913 13.292 6.43543 14.7716 7.55067 15.8868C8.66591 17.0021 10.1455 17.6784 11.7186 17.7919C13.2917 17.9055 14.8531 17.4487 16.1169 16.5052L17.4541 17.8425C15.8327 19.1395 13.79 19.7931 11.7168 19.6782C9.64364 19.5633 7.68562 18.6881 6.21742 17.2199C4.74921 15.7516 3.87393 13.7936 3.75905 11.7205C3.64418 9.64729 4.29777 7.60455 5.59477 5.98312L5.595 5.98336Z" fill="#C4C4C4" fill-opacity="0.85"/>
<path d="M26.916 16.7577L24.6496 19.0243C24.4738 19.2001 24.375 19.4385 24.375 19.6872C24.375 19.9358 24.4738 20.1743 24.6496 20.3501C24.8254 20.5259 25.0639 20.6247 25.3125 20.6247C25.5612 20.6247 25.7996 20.5259 25.9754 20.3501L28.2422 18.0838C28.4631 18.663 28.7967 19.1926 29.2237 19.6419C29.6508 20.0912 30.1627 20.4514 30.7298 20.7015C31.297 20.9516 31.9081 21.0868 32.5278 21.0991C33.1476 21.1114 33.7636 21.0006 34.3403 20.7732C34.9169 20.5458 35.4427 20.2062 35.8872 19.7742C36.3317 19.3422 36.6861 18.8263 36.9298 18.2563C37.1736 17.6864 37.3018 17.0738 37.3072 16.4539C37.3125 15.8341 37.1948 15.2194 36.9609 14.6453C37.059 14.5622 37.1536 14.4751 37.2447 14.3841C38.1237 13.505 38.6176 12.3127 38.6176 11.0695C38.6176 9.82629 38.1237 8.63399 37.2447 7.75491C36.3656 6.87582 35.1733 6.38196 33.9301 6.38196C32.6869 6.38196 31.4946 6.87582 30.6155 7.75491C30.5245 7.84584 30.4375 7.94041 30.3543 8.03862C29.5033 7.70522 28.5737 7.62622 27.6787 7.81123C26.7836 7.99624 25.9616 8.43729 25.3125 9.08077C24.7617 9.63086 24.3567 10.3095 24.134 11.0555C23.9114 11.8014 23.8782 12.5911 24.0373 13.3531C24.1965 14.1151 24.543 14.8254 25.0456 15.4198C25.5482 16.0143 26.1911 16.4741 26.916 16.7577ZM26.6384 10.4062C27.0937 9.95423 27.6893 9.6707 28.3272 9.60221C28.9651 9.53372 29.6073 9.68433 30.1483 10.0293C30.2559 10.0987 30.3766 10.1453 30.503 10.1662C30.6294 10.1872 30.7587 10.182 30.8829 10.151C31.0072 10.12 31.1238 10.0639 31.2256 9.98611C31.3274 9.90832 31.4121 9.8105 31.4746 9.6987C31.6864 9.31882 31.9835 8.99326 32.3424 8.74759C32.7013 8.50192 33.1123 8.34284 33.5431 8.28285C33.9739 8.22287 34.4127 8.26361 34.8251 8.40189C35.2375 8.54016 35.6122 8.77219 35.9197 9.07974C36.2273 9.38729 36.4593 9.76198 36.5976 10.1744C36.7358 10.5867 36.7766 11.0256 36.7166 11.4564C36.6566 11.8871 36.4975 12.2982 36.2519 12.6571C36.0062 13.016 35.6806 13.313 35.3008 13.5249C35.1889 13.5874 35.0911 13.6721 35.0133 13.7738C34.9355 13.8756 34.8794 13.9922 34.8485 14.1165C34.8175 14.2408 34.8123 14.3701 34.8332 14.4965C34.8542 14.6228 34.9008 14.7435 34.9702 14.8512C35.3151 15.3922 35.4657 16.0344 35.3972 16.6723C35.3287 17.3102 35.0452 17.9058 34.5932 18.3612C34.2094 18.7454 33.7225 19.0102 33.1915 19.1236C32.6604 19.237 32.1078 19.1941 31.6006 19.0001C31.0934 18.8062 30.6532 18.4694 30.3333 18.0306C30.0134 17.5918 29.8275 17.0697 29.798 16.5275L32.5575 13.7678C32.7333 13.592 32.8321 13.3535 32.8321 13.1049C32.8321 12.8562 32.7333 12.6178 32.5575 12.4419C32.3817 12.2661 32.1432 12.1673 31.8946 12.1673C31.6459 12.1673 31.4075 12.2661 31.2317 12.4419L28.4724 15.2011C27.9302 15.1715 27.4082 14.9856 26.9695 14.6657C26.5307 14.3458 26.194 13.9057 26 13.3985C25.8061 12.8914 25.7631 12.3389 25.8764 11.8079C25.9897 11.2769 26.2543 10.79 26.6384 10.4062Z" fill="#C4C4C4" fill-opacity="0.85"/>
<path d="M54.375 33.75C54.3735 32.6046 53.9534 31.4992 53.1936 30.642C52.4339 29.7848 51.387 29.235 50.25 29.096C49.9283 28.3436 49.4154 27.6885 48.7621 27.1957C48.1089 26.7029 47.3381 26.3896 46.5263 26.287C45.7144 26.1843 44.8899 26.2959 44.1346 26.6106C43.3792 26.9253 42.7194 27.4322 42.2205 28.0808C41.5813 26.8089 40.6303 25.7197 39.4563 24.9147C38.2823 24.1097 36.9235 23.6152 35.5067 23.4774C34.0899 23.3395 32.6613 23.5627 31.3541 24.1262C30.0469 24.6897 28.9037 25.5751 28.0312 26.6999C27.7647 26.5548 27.4813 26.4431 27.1875 26.3672V26.25C27.1875 25.2554 26.7924 24.3016 26.0891 23.5984C25.3859 22.8951 24.4321 22.5 23.4375 22.5C22.4429 22.5 21.4891 22.8951 20.7859 23.5984C20.0826 24.3016 19.6875 25.2554 19.6875 26.25V26.3665C19.1987 26.4909 18.7403 26.7134 18.3401 27.0203C17.9399 27.3272 17.6062 27.7123 17.3592 28.1521C14.7608 26.3474 11.1014 25.7092 6.45281 26.2564C6.22474 26.2833 6.01447 26.393 5.86188 26.5646C5.70929 26.7362 5.625 26.9579 5.625 27.1875C5.625 27.3445 5.64691 30.5872 7.2027 33.75H5.625C5.37636 33.75 5.1379 33.8488 4.96209 34.0246C4.78627 34.2004 4.6875 34.4389 4.6875 34.6875V38.4375C4.69172 42.1658 6.17465 45.7402 8.81097 48.3765C11.4473 51.0128 15.0217 52.4958 18.75 52.5H20.625V55.3125C20.625 55.5611 20.7238 55.7996 20.8996 55.9754C21.0754 56.1512 21.3139 56.25 21.5625 56.25H38.4375C38.6861 56.25 38.9246 56.1512 39.1004 55.9754C39.2762 55.7996 39.375 55.5611 39.375 55.3125V52.5H41.25C44.9783 52.4958 48.5527 51.0128 51.189 48.3765C53.8253 45.7402 55.3083 42.1658 55.3125 38.4375V34.6875C55.3125 34.4389 55.2137 34.2004 55.0379 34.0246C54.8621 33.8488 54.6236 33.75 54.375 33.75ZM43.2127 30.2368C43.3685 29.6327 43.7207 29.0975 44.2139 28.7153C44.7071 28.3332 45.3133 28.1258 45.9373 28.1258C46.5612 28.1258 47.1674 28.3332 47.6606 28.7153C48.1538 29.0975 48.506 29.6327 48.6619 30.2368C48.716 30.4428 48.8381 30.6243 49.0085 30.752C49.1789 30.8797 49.3875 30.9459 49.6003 30.94L49.6436 30.9383C49.6579 30.9383 49.6723 30.9369 49.687 30.9369C50.4327 30.9378 51.1476 31.2344 51.6748 31.7616C52.2021 32.2889 52.4987 33.0038 52.4995 33.7494H42.9141C43.1497 32.7151 43.1885 31.6457 43.0286 30.5971C43.1157 30.492 43.1785 30.369 43.2127 30.2368ZM34.6875 25.3125C35.7094 25.3133 36.717 25.5525 37.6302 26.0111C38.5434 26.4698 39.3369 27.1352 39.9477 27.9545C40.5585 28.7737 40.9697 29.7242 41.1486 30.7303C41.3275 31.7364 41.2691 32.7704 40.9781 33.75H38.9818C39.294 33.0366 39.4235 32.2567 39.3587 31.4807C39.2939 30.7046 39.0368 29.957 38.6106 29.3053C38.1844 28.6535 37.6025 28.1183 36.9176 27.7478C36.2327 27.3773 35.4662 27.1833 34.6875 27.1833C33.9088 27.1833 33.1423 27.3773 32.4574 27.7478C31.7725 28.1183 31.1906 28.6535 30.7644 29.3053C30.3382 29.957 30.0811 30.7046 30.0163 31.4807C29.9514 32.2567 30.081 33.0366 30.3932 33.75H28.3969C28.1059 32.7704 28.0475 31.7364 28.2264 30.7303C28.4053 29.7242 28.8165 28.7737 29.4273 27.9545C30.0381 27.1352 30.8316 26.4698 31.7448 26.0111C32.658 25.5525 33.6656 25.3133 34.6875 25.3125ZM32.5922 33.75C32.2299 33.3454 31.9926 32.8446 31.9087 32.3081C31.8249 31.7715 31.8982 31.2222 32.1197 30.7264C32.3413 30.2306 32.7017 29.8095 33.1573 29.5141C33.613 29.2186 34.1444 29.0614 34.6875 29.0614C35.2306 29.0614 35.762 29.2186 36.2177 29.5141C36.6733 29.8095 37.0337 30.2306 37.2553 30.7264C37.4768 31.2222 37.5501 31.7715 37.4663 32.3081C37.3824 32.8446 37.1451 33.3454 36.7828 33.75H32.5922ZM18.7588 29.8225C18.8008 29.3572 19.0158 28.9247 19.3614 28.6104C19.7069 28.296 20.1579 28.1228 20.625 28.125C20.8736 28.125 21.1121 28.0262 21.2879 27.8504C21.4637 27.6746 21.5625 27.4361 21.5625 27.1875V26.25C21.5625 25.7527 21.76 25.2758 22.1117 24.9242C22.4633 24.5725 22.9402 24.375 23.4375 24.375C23.9348 24.375 24.4117 24.5725 24.7633 24.9242C25.115 25.2758 25.3125 25.7527 25.3125 26.25V27.1875C25.3125 27.4361 25.4113 27.6746 25.5871 27.8504C25.7629 28.0262 26.0014 28.125 26.25 28.125C26.5251 28.1251 26.7968 28.1861 27.0456 28.3035C26.2491 30.0031 26.0433 31.9201 26.4609 33.75H19.0023C19.1474 33.4991 19.3486 33.285 19.59 33.1246C19.7187 33.039 19.8243 32.923 19.8974 32.7867C19.9704 32.6505 20.0086 32.4983 20.0086 32.3438C20.0086 32.1892 19.9704 32.037 19.8974 31.9008C19.8243 31.7645 19.7187 31.6485 19.59 31.5629C19.3317 31.3921 19.1198 31.16 18.9733 30.8872C18.8267 30.6145 18.75 30.3096 18.75 30C18.75 29.9441 18.7529 29.8849 18.7588 29.8225ZM16.878 30.1454C16.9083 30.9472 17.1957 31.7179 17.6977 32.3438C17.3659 32.7573 17.126 33.2366 16.9938 33.75H16.2664L9.01359 27.9477C12.4247 27.8644 15.062 28.6005 16.878 30.1454ZM7.73438 29.3258L13.2648 33.75H9.33668C8.42473 32.2453 7.9657 30.5952 7.73438 29.3258ZM37.5 54.375H22.5V52.5H37.5V54.375ZM53.4375 38.4375C53.4338 41.6687 52.1486 44.7665 49.8638 47.0513C47.579 49.3361 44.4812 50.6213 41.25 50.625H18.75C15.5188 50.6213 12.421 49.3361 10.1362 47.0513C7.85137 44.7665 6.56616 41.6687 6.5625 38.4375V35.625H53.4375V38.4375Z" fill="#C4C4C4" fill-opacity="0.85"/>
</svg>
