<svg width="14" height="19" viewBox="0 0 14 19" fill="none" xmlns="http://www.w3.org/2000/svg">
<path d="M10.125 8.96875C10.125 8.86328 10.0547 8.75781 9.98438 8.6875C9.91406 8.61719 9.80859 8.54688 9.70312 8.54688H3.79688C3.65625 8.54688 3.55078 8.61719 3.48047 8.6875C3.41016 8.75781 3.375 8.86328 3.375 8.96875V9.95312C3.375 10.0938 3.41016 10.1992 3.48047 10.2695C3.55078 10.3398 3.65625 10.375 3.79688 10.375H9.70312C9.80859 10.375 9.91406 10.3398 9.98438 10.2695C10.0547 10.1992 10.125 10.0938 10.125 9.95312V8.96875ZM9.70312 11.5C9.80859 11.5 9.91406 11.5703 9.98438 11.6406C10.0547 11.7109 10.125 11.8164 10.125 11.9219V12.9062C10.125 13.0469 10.0547 13.1523 9.98438 13.2227C9.91406 13.293 9.80859 13.3281 9.70312 13.3281H3.79688C3.65625 13.3281 3.55078 13.293 3.48047 13.2227C3.41016 13.1523 3.375 13.0469 3.375 12.9062V11.9219C3.375 11.8164 3.41016 11.7109 3.48047 11.6406C3.55078 11.5703 3.65625 11.5 3.79688 11.5H9.70312ZM13.5 4.89062C13.5 4.43359 13.3242 4.04688 13.0078 3.69531L10.0547 0.742188C9.70312 0.425781 9.31641 0.25 8.85938 0.25H1.6875C1.19531 0.25 0.808594 0.425781 0.492188 0.742188C0.140625 1.09375 0 1.48047 0 1.9375V16.5625C0 17.0547 0.140625 17.4414 0.492188 17.7578C0.808594 18.1094 1.19531 18.25 1.6875 18.25H11.8125C12.2695 18.25 12.6562 18.1094 13.0078 17.7578C13.3242 17.4414 13.5 17.0547 13.5 16.5625V4.89062ZM9 2.07812L11.6719 4.75H9V2.07812ZM11.8125 16.5625H1.6875V1.9375H7.3125V5.59375C7.3125 5.83984 7.38281 6.05078 7.55859 6.19141C7.69922 6.36719 7.91016 6.4375 8.15625 6.4375H11.8125V16.5625Z" fill="#39A237"/>
</svg>
