<svg width="164" height="721" viewBox="0 0 164 721" fill="none" xmlns="http://www.w3.org/2000/svg">
<g opacity="0.2">
<path d="M0 46.2757C0 30.9167 4.00319 19.4636 12.0096 11.9165C20.1472 4.50178 33.01 0.529622 50.5978 0L55.126 30.387C45.0196 30.5194 37.7351 31.7111 33.2725 33.962C28.9412 36.3453 26.7755 39.854 26.7755 44.4882C26.7755 50.4464 30.6475 53.4256 38.3914 53.4256C44.5602 53.4256 49.8759 51.9691 54.3385 49.0562C58.8011 46.2757 63.5918 41.8401 68.7107 35.7495L80.7203 21.8469C86.4954 14.9618 92.5986 9.59939 99.03 5.75963C105.593 2.05228 113.337 0.198607 122.262 0.198607C135.649 0.198607 145.953 4.17077 153.172 12.1151C160.391 20.1918 164 31.2477 164 45.2826C164 60.5093 159.603 70.8369 150.809 76.2655C142.015 81.8265 131.318 84.8056 118.718 85.2029L114.977 54.6172C123.246 54.3524 129.152 53.558 132.696 52.2339C136.371 51.0423 138.209 48.328 138.209 44.091C138.209 41.0457 136.896 38.6624 134.271 36.9411C131.778 35.3522 128.956 34.5578 125.806 34.5578C120.424 34.5578 115.896 35.7495 112.221 38.1327C108.546 40.6485 104.346 44.6206 99.6206 50.0492L88.0048 63.356C81.3109 71.3003 74.2233 77.4571 66.7419 81.8265C59.2605 86.1959 50.401 88.3806 40.1633 88.3806C32.6819 88.3806 25.8568 86.5931 19.6879 83.0182C13.6503 79.5756 8.85953 74.6766 5.3157 68.3212C1.7719 61.9657 0 54.6172 0 46.2757Z" fill="white"/>
<path d="M161.834 115.525V169.546C161.834 183.713 157.831 194.306 149.825 201.323C141.95 208.341 130.531 211.85 115.568 211.85C98.505 211.85 86.6267 207.745 79.9328 199.536C73.3701 191.459 70.0888 180.072 70.0888 165.375V151.076H2.36253V115.525L161.834 115.525ZM94.6987 162.992C94.6987 169.215 96.3393 173.32 99.6206 175.306C102.902 177.424 108.415 178.483 116.158 178.483C123.246 178.483 128.496 177.49 131.909 175.504C135.321 173.518 137.028 169.281 137.028 162.793V151.076H94.6987V162.992Z" fill="white"/>
<path d="M161.834 238.918V311.211H137.815V274.469H98.2425V302.472H73.8295V274.469H26.1849V311.608H2.36253V238.918H161.834Z" fill="white"/>
<path d="M0 383.756C0 366.278 4.52821 353.832 13.5846 346.417C22.7723 339.135 35.9632 335.494 53.1573 335.494H110.646C128.234 335.494 141.49 339.135 150.415 346.417C159.472 353.7 164 366.146 164 383.756C164 400.571 159.997 412.488 151.99 419.505C143.984 426.523 132.631 430.031 117.93 430.031H104.149V395.275H120.096C126.265 395.275 130.99 394.613 134.271 393.289C137.553 391.965 139.193 388.787 139.193 383.756C139.193 378.724 137.421 375.414 133.878 373.825C130.465 372.236 125.674 371.442 119.505 371.442H44.4946C38.1945 371.442 33.3381 372.236 29.9256 373.825C26.6443 375.547 25.0036 378.857 25.0036 383.756C25.0036 388.655 26.6443 391.766 29.9256 393.09C33.3381 394.547 38.1945 395.275 44.4946 395.275H61.2293V430.031H47.4478C32.485 430.031 20.8035 426.523 12.4034 419.505C4.13445 412.488 0 400.571 0 383.756Z" fill="white"/>
<path d="M161.834 459.719V495.27H2.36253V459.719H161.834Z" fill="white"/>
<path d="M161.834 551.829V592.345L2.36253 622.335V589.565L36.0288 584.202L36.0288 560.568L2.36253 555.007V521.442L161.834 551.829ZM57.0948 580.826L119.309 572.286L57.0948 563.746L57.0948 580.826Z" fill="white"/>
<path d="M161.834 648.508V684.059H26.1849L26.1849 721H2.36253L2.36253 648.508H161.834Z" fill="white"/>
</g>
</svg>
