<svg width="1132" height="144" viewBox="0 0 1132 144" fill="none" xmlns="http://www.w3.org/2000/svg">
<g opacity="0.1">
<path d="M-3.05176e-05 1.90156H30.9025V58.6026H52.4824V1.90156H83.5576V141.926H52.4824V80.7299H30.9025V141.926H-3.05176e-05V1.90156Z" fill="white"/>
<path d="M153.537 144C138.46 144 127.699 140.139 121.254 132.418C114.809 124.581 111.586 113.056 111.586 97.8439V45.8103C111.586 30.5978 114.809 19.1885 121.254 11.5822C127.699 3.86075 138.46 0 153.537 0C168.73 0 179.548 3.86075 185.994 11.5822C192.554 19.3037 195.834 30.7131 195.834 45.8103V97.8439C195.834 113.056 192.554 124.581 185.994 132.418C179.548 140.139 168.73 144 153.537 144ZM153.537 122.046C157.911 122.046 160.788 120.605 162.169 117.724C163.55 114.727 164.241 110.694 164.241 105.623V38.2041C164.241 33.018 163.55 28.9844 162.169 26.1032C160.788 23.2221 157.911 21.7815 153.537 21.7815C149.394 21.7815 146.632 23.2797 145.251 26.2761C143.87 29.1573 143.179 33.1333 143.179 38.2041V105.623C143.179 110.694 143.812 114.727 145.078 117.724C146.344 120.605 149.164 122.046 153.537 122.046Z" fill="white"/>
<path d="M217.576 1.90156H243.817L252.104 83.4958L262.635 2.07443H283.179L294.228 82.9772L302.687 1.90156H328.583L311.837 141.926H284.905L272.993 57.3926L261.772 141.926H234.495L217.576 1.90156Z" fill="white"/>
<path d="M405.257 1.90156H436.159V141.926H405.257V1.90156Z" fill="white"/>
<path d="M478.246 24.8932H457.184V1.90156H530.21V24.8932H509.321V141.926H478.246V24.8932Z" fill="white"/>
<path d="M598.26 1.90156H624.501L632.788 83.4958L643.319 2.07443H663.863L674.912 82.9772L683.371 1.90156H709.267L692.521 141.926H665.589L653.677 57.3926L642.456 141.926H615.179L598.26 1.90156Z" fill="white"/>
<path d="M772.68 144C757.603 144 746.842 140.139 740.396 132.418C733.951 124.581 730.729 113.056 730.729 97.8439V45.8103C730.729 30.5978 733.951 19.1885 740.396 11.5822C746.842 3.86075 757.603 0 772.68 0C787.872 0 798.691 3.86075 805.136 11.5822C811.697 19.3037 814.977 30.7131 814.977 45.8103V97.8439C814.977 113.056 811.697 124.581 805.136 132.418C798.691 140.139 787.872 144 772.68 144ZM772.68 122.046C777.054 122.046 779.931 120.605 781.312 117.724C782.693 114.727 783.384 110.694 783.384 105.623V38.2041C783.384 33.018 782.693 28.9844 781.312 26.1032C779.931 23.2221 777.054 21.7815 772.68 21.7815C768.537 21.7815 765.774 23.2797 764.393 26.2761C763.012 29.1573 762.322 33.1333 762.322 38.2041V105.623C762.322 110.694 762.955 114.727 764.221 117.724C765.487 120.605 768.306 122.046 772.68 122.046Z" fill="white"/>
<path d="M842.416 1.90156H880.914C896.222 1.90156 907.789 4.60984 915.615 10.0264C923.441 15.443 927.354 25.066 927.354 38.8956C927.354 48.2305 926.146 55.6639 923.729 61.1957C921.312 66.7275 916.823 71.0492 910.263 74.1609L929.426 141.926H897.488L882.123 79.1741H873.318V141.926H842.416V1.90156ZM881.95 61.3685C888.165 61.3685 892.481 59.7551 894.898 56.5282C897.43 53.1861 898.696 48.2305 898.696 41.6615C898.696 35.3229 897.545 30.5978 895.243 27.4862C892.942 24.2593 888.971 22.6459 883.331 22.6459H873.318V61.3685H881.95Z" fill="white"/>
<path d="M954.564 1.90156H985.467V59.1212L1008.95 1.90156H1039.16L1013.26 65.1717L1040.37 141.926H1008.95L988.747 80.0384L985.467 85.5702V141.926H954.564V1.90156Z" fill="white"/>
<path d="M1095.4 144C1082.05 144 1072.09 140.485 1065.53 133.455C1059.09 126.31 1055.64 115.016 1055.18 99.5726L1081.59 95.5966C1081.7 104.471 1082.74 110.867 1084.7 114.785C1086.77 118.588 1089.82 120.49 1093.85 120.49C1099.03 120.49 1101.62 117.09 1101.62 110.291C1101.62 104.874 1100.35 100.206 1097.82 96.2881C1095.4 92.3697 1091.54 88.1633 1086.25 83.6687L1074.17 73.1236C1068.18 68.0528 1063.52 62.6939 1060.18 57.0468C1056.96 51.2845 1055.35 44.485 1055.35 36.6483C1055.35 24.8932 1058.8 15.8463 1065.71 9.5078C1072.73 3.16927 1082.34 0 1094.54 0C1107.77 0 1116.75 3.86075 1121.47 11.5822C1126.3 19.3037 1128.89 28.6963 1129.24 39.7599L1102.65 43.0444C1102.42 35.7839 1101.73 30.5978 1100.58 27.4862C1099.54 24.2593 1097.18 22.6459 1093.5 22.6459C1090.85 22.6459 1088.78 23.7983 1087.29 26.1032C1085.91 28.2929 1085.21 30.7707 1085.21 33.5366C1085.21 38.2617 1086.25 42.2377 1088.32 45.4646C1090.51 48.6915 1093.96 52.3793 1098.68 56.5282L1110.25 66.7275C1117.15 72.605 1122.5 78.8283 1126.3 85.3974C1130.1 91.9664 1132 99.7455 1132 108.735C1132 115.304 1130.45 121.297 1127.34 126.713C1124.35 132.014 1120.09 136.221 1114.56 139.333C1109.04 142.444 1102.65 144 1095.4 144Z" fill="white"/>
</g>
</svg>
