<svg width="40" height="40" viewBox="0 0 40 40" fill="none" xmlns="http://www.w3.org/2000/svg">
<path d="M28.5457 14.34C27.9053 14.7917 27.1962 15.1372 26.4458 15.3632C26.043 14.9001 25.5078 14.5718 24.9124 14.4229C24.317 14.2739 23.6902 14.3114 23.1168 14.5302C22.5434 14.7491 22.051 15.1387 21.7063 15.6465C21.3616 16.1543 21.1811 16.7558 21.1894 17.3695V18.0382C20.0141 18.0687 18.8496 17.808 17.7994 17.2795C16.7493 16.7509 15.8462 15.9708 15.1705 15.0087C15.1705 15.0087 12.4955 21.0276 18.5143 23.7026C17.137 24.6375 15.4963 25.1063 13.833 25.0401C19.8518 28.3839 27.2082 25.0401 27.2082 17.3494C27.2076 17.1631 27.1897 16.9773 27.1547 16.7943C27.8372 16.1212 28.3189 15.2714 28.5457 14.34V14.34Z" stroke="#41AA3F" stroke-linecap="round" stroke-linejoin="round"/>
<circle cx="20" cy="20" r="19.5" stroke="#41AA3F" stroke-opacity="0.5"/>
</svg>
