<svg width="16" height="16" viewBox="0 0 16 16" fill="none" xmlns="http://www.w3.org/2000/svg">
<path d="M14 2C14.5312 2 15 2.21875 15.4062 2.59375C15.7812 3 16 3.46875 16 4V14C16 14.5625 15.7812 15.0312 15.4062 15.4062C15 15.8125 14.5312 16 14 16H2C1.4375 16 0.96875 15.8125 0.59375 15.4062C0.1875 15.0312 0 14.5625 0 14V4C0 3.46875 0.1875 3 0.59375 2.59375C0.96875 2.21875 1.4375 2 2 2H4.03125C4.46875 1.375 5.0625 0.90625 5.75 0.53125C6.4375 0.1875 7.1875 0 8 0C8.78125 0 9.53125 0.1875 10.2188 0.53125C10.9062 0.90625 11.5 1.375 11.9688 2H14ZM8 1.5C7.375 1.5 6.78125 1.65625 6.25 1.96875C5.6875 2.28125 5.28125 2.71875 4.96875 3.25C4.65625 3.8125 4.5 4.375 4.5 5C4.5 5.625 4.65625 6.21875 4.96875 6.75C5.28125 7.3125 5.6875 7.71875 6.25 8.03125C6.78125 8.34375 7.375 8.5 8 8.5C8.625 8.5 9.1875 8.34375 9.75 8.03125C10.2812 7.71875 10.7188 7.3125 11.0312 6.75C11.3438 6.21875 11.5 5.625 11.5 5C11.5 4.375 11.3438 3.8125 11.0312 3.25C10.7188 2.71875 10.2812 2.28125 9.75 1.96875C9.1875 1.65625 8.625 1.5 8 1.5ZM14.5 14V4C14.5 3.875 14.4375 3.75 14.3438 3.65625C14.25 3.5625 14.125 3.5 14 3.5H12.75C12.9062 4.0625 13 4.5625 13 5C13 5.90625 12.75 6.75 12.3125 7.5C11.875 8.28125 11.25 8.90625 10.5 9.34375C9.71875 9.78125 8.875 10 8 10C7.09375 10 6.25 9.78125 5.5 9.34375C4.71875 8.90625 4.09375 8.28125 3.65625 7.5C3.21875 6.75 3 5.90625 3 5C3 4.5625 3.0625 4.0625 3.25 3.5H2C1.84375 3.5 1.71875 3.5625 1.625 3.65625C1.53125 3.75 1.5 3.875 1.5 4V14C1.5 14.1562 1.53125 14.2812 1.625 14.375C1.71875 14.4688 1.84375 14.5 2 14.5H14C14.125 14.5 14.25 14.4688 14.3438 14.375C14.4375 14.2812 14.5 14.1562 14.5 14ZM8 7.5C7.71875 7.5 7.46875 7.40625 7.28125 7.21875C7.09375 7.03125 7 6.78125 7 6.53125C7 6.28125 7.0625 6.09375 7.21875 5.90625C7.34375 5.71875 7.53125 5.59375 7.78125 5.53125L8.53125 3.34375C8.59375 3.15625 8.71875 3.03125 8.90625 3C9.09375 3 9.25 3.0625 9.375 3.1875C9.5 3.3125 9.53125 3.46875 9.46875 3.65625L8.75 5.84375C8.90625 6.03125 9 6.28125 9 6.53125C9 6.78125 8.875 7.03125 8.6875 7.21875C8.5 7.40625 8.25 7.5 8 7.5Z" fill="#A5A5A5"/>
</svg>
