<svg width="16" height="16" viewBox="0 0 16 16" fill="none" xmlns="http://www.w3.org/2000/svg">
<path d="M15.5625 7.0625C15.8438 7.375 16 7.71875 16 8.125C16 8.5625 15.8438 8.90625 15.5625 9.1875L9.1875 15.5625C8.875 15.875 8.53125 16 8.125 16C7.6875 16 7.34375 15.875 7.0625 15.5625L0.4375 8.9375C0.125 8.65625 0 8.3125 0 7.875V1.5C0 1.09375 0.125 0.75 0.4375 0.4375C0.71875 0.15625 1.0625 0 1.5 0H7.875C8.28125 0 8.625 0.15625 8.9375 0.4375L15.5625 7.0625ZM8.125 14.5L14.5 8.125L7.875 1.5H1.5V7.875L8.125 14.5ZM6 4.5C6 4.09375 5.84375 3.75 5.5625 3.4375C5.25 3.15625 4.90625 3 4.5 3C4.0625 3 3.71875 3.15625 3.4375 3.4375C3.125 3.75 3 4.09375 3 4.5C3 4.9375 3.125 5.28125 3.4375 5.5625C3.71875 5.875 4.0625 6 4.5 6C4.90625 6 5.25 5.875 5.5625 5.5625C5.84375 5.28125 6 4.9375 6 4.5Z" fill="#A5A5A5"/>
</svg>
