<svg width="75" height="75" viewBox="0 0 75 75" fill="none" xmlns="http://www.w3.org/2000/svg">
<path d="M1.71508 3.81909C1.60488 3.69847 1.44798 3.62782 1.28465 3.62529C0.956105 3.62108 0.684309 3.88301 0.678739 4.2113C0.67695 4.31713 0.761289 4.40435 0.86709 4.40614C0.868214 4.40617 0.869287 4.40617 0.870412 4.40617C0.974731 4.40617 1.06017 4.32249 1.06193 4.21776C1.0639 4.10052 1.16027 4.00644 1.27864 4.00849C1.33774 4.00941 1.39224 4.03393 1.43212 4.07757C1.5035 4.15573 1.62474 4.1612 1.70284 4.08981C1.78097 4.01845 1.78647 3.89722 1.71508 3.81909Z" fill="#41AA3F"/>
<path d="M2.73405 4.44344C2.67531 4.30537 2.56097 4.1964 2.42027 4.14446C2.13734 4.04009 1.82193 4.18513 1.7171 4.46773C1.68028 4.56697 1.73089 4.67724 1.8301 4.71406C1.85207 4.72221 1.87458 4.72607 1.89671 4.72607C1.97456 4.72607 2.04773 4.67829 2.0764 4.60103C2.10788 4.51615 2.20274 4.47272 2.28757 4.50401C2.33021 4.51975 2.36353 4.55151 2.38133 4.59341C2.42275 4.69078 2.53532 4.73621 2.63267 4.69477C2.73009 4.65335 2.77544 4.54083 2.73405 4.44344Z" fill="#41AA3F"/>
<path d="M3.96951 2.74642C3.8946 2.67164 3.77327 2.67179 3.69854 2.74671L3.5179 2.9277C3.44314 3.00261 3.44327 3.12395 3.51818 3.19868C3.55556 3.23601 3.60454 3.25466 3.65352 3.25466C3.70262 3.25466 3.75173 3.2359 3.78916 3.1984L3.9698 3.0174C4.04455 2.94249 4.04443 2.82116 3.96951 2.74642Z" fill="#41AA3F"/>
<path d="M2.77709 5.22021H2.5217C2.41585 5.22021 2.33008 5.30601 2.33008 5.41184C2.33008 5.51766 2.41585 5.60346 2.5217 5.60346H2.77709C2.88295 5.60346 2.96872 5.51766 2.96872 5.41184C2.96872 5.30601 2.88295 5.22021 2.77709 5.22021Z" fill="#41AA3F"/>
<path d="M4.73513 5.22021H4.47971C4.37386 5.22021 4.28809 5.30601 4.28809 5.41184C4.28809 5.51766 4.37388 5.60346 4.47971 5.60346H4.73513C4.84095 5.60346 4.92675 5.51766 4.92675 5.41184C4.92675 5.30601 4.84095 5.22021 4.73513 5.22021Z" fill="#41AA3F"/>
<path d="M67.1839 14.1281C63.8842 9.79786 59.5063 6.16035 54.5234 3.60875C50.1603 1.37444 45.5824 0.096242 41.6331 0.00946858C29.6382 -0.254776 24.9763 5.08637 23.8453 6.69945C16.8152 8.25469 9.92782 11.3095 5.38362 14.8947C1.52548 17.9386 -0.320457 21.0354 0.0455317 23.8498C0.322567 25.9797 2.48144 29.0197 11.1938 31.4062C11.7835 31.5677 12.4065 31.1963 12.546 30.6017C12.6784 30.0374 12.3299 29.4524 11.771 29.2994C6.13363 27.7552 2.47083 25.5591 2.21196 23.5682C1.95804 21.615 3.60731 19.0788 6.73697 16.6098C10.9767 13.2647 17.4158 10.3983 24.0428 8.89379C27.0577 13.2925 30.7629 21.531 25.8062 31.2988C22.6228 31.2265 19.2114 30.8697 15.9472 30.2552C15.362 30.1446 14.7818 30.5414 14.6716 31.1264C14.5616 31.7113 14.9579 32.2918 15.5429 32.4018C19.9425 33.2302 24.609 33.6091 28.6829 33.4699C31.5056 33.3725 34.1228 33.4909 36.4667 33.8075C37.3616 36.428 38.7808 40.7382 39.6408 44.1315C40.2083 46.3706 41.6164 46.6273 42.2301 46.6273C42.2408 46.6273 42.2513 46.6273 42.2615 46.6272C44.3222 46.5974 46.6718 43.8459 48.041 40.1248C48.2754 40.7616 48.4049 41.4379 48.4244 42.1526C48.6007 48.6449 44.818 52.3107 41.0485 53.1135C40.4195 52.5221 39.1497 51.4631 37.3928 50.6606C35.0353 49.5836 31.3273 48.7741 27.0511 51.0352C26.1015 51.5372 25.5725 52.5507 25.7034 53.6167C25.8351 54.6901 26.5992 55.5513 27.6498 55.8107C30.2876 56.4621 33.5985 58.0834 34.3921 62.1079C35.166 66.032 34.1558 68.8699 33.1721 70.5596C32.6642 71.4319 32.7245 72.5333 33.3133 73.3508C33.8661 74.1181 34.8098 74.5247 35.7475 74.3947C38.1003 74.0691 40.1241 73.188 41.7631 71.7756C43.8699 69.9602 45.2404 67.3332 45.8416 63.9605C47.0533 63.4493 49.9953 62.1288 53.3901 60.0314C53.8964 59.7186 54.0583 59.0343 53.7452 58.5279C53.4323 58.0217 52.7481 57.86 52.2419 58.1728C48.0577 60.7579 44.502 62.1491 44.4668 62.1625C44.0998 62.3048 43.8378 62.6333 43.7807 63.0225C43.2304 66.7733 41.3379 71.4153 35.4476 72.2307C35.1415 72.2717 34.9013 71.9306 35.0597 71.6586C36.2327 69.6439 37.4408 66.2781 36.5351 61.6852C35.5192 56.5328 31.4273 54.4935 28.1734 53.6898C27.8337 53.6061 27.7511 53.1356 28.0719 52.9661C34.7199 49.4509 39.6588 54.7891 39.8639 55.0158C40.1074 55.2882 40.4711 55.4211 40.8325 55.369C43.5208 54.9852 45.983 53.548 47.7655 51.3216C49.7225 48.8776 50.7055 45.6862 50.6078 42.0928C50.5436 39.728 49.6071 37.6787 47.8243 36.0021C44.2689 32.6585 37.4443 30.9832 28.6078 31.2861C28.4837 31.2903 28.3572 31.2927 28.2319 31.2959C29.3925 28.7619 30.0917 26.1892 30.3255 23.5954C33.652 25.1977 35.7208 25.7275 37.045 25.7275C38.2766 25.7275 38.8647 25.2693 39.2213 24.7893C40.9754 22.4293 40.9936 19.2018 40.9917 18.9271C40.9934 18.6524 40.9753 15.4251 39.2213 13.065C38.0692 11.5149 35.4896 12.2012 33.6497 12.8518C32.1757 13.3733 30.6197 14.098 29.3309 14.7512C28.5348 12.2313 27.4109 10.0867 26.3507 8.42489C31.7623 7.45571 39.0173 7.06515 45.7725 9.63929C46.526 9.92664 47.2712 10.2354 47.9873 10.557C48.5378 10.8046 49.1842 10.5586 49.4314 10.0083C49.6786 9.45804 49.433 8.81167 48.8827 8.56443C48.128 8.22533 47.3434 7.90018 46.5506 7.59786C39.9724 5.09117 33.0113 5.2073 27.5117 6.0214C27.8811 5.72416 28.3059 5.41588 28.7933 5.10962C32.8572 2.55584 37.9926 2.11383 41.5846 2.19276C48.3235 2.34087 58.6648 6.55294 65.4458 15.4515C70.0694 21.519 74.7311 32.127 70.6839 48.2075C70.6086 48.507 70.2189 48.5977 70.0137 48.3697L67.2019 45.2513C67.5618 44.2867 67.8361 43.3109 68.0217 42.3241C69.1638 36.2536 68.4287 30.144 65.8958 24.6552C63.2708 18.9671 58.7679 14.1168 52.8736 10.6284C52.3545 10.3208 51.6844 10.4931 51.3773 11.012C51.0701 11.5313 51.2417 12.2011 51.761 12.5083C57.2721 15.7701 61.4739 20.2868 63.9122 25.5706C66.2538 30.6447 66.9324 36.2984 65.8749 41.9203C64.9564 46.8022 61.5605 51.4628 55.7815 55.7728C55.3472 56.0967 55.217 56.7099 55.4818 57.1823C55.7994 57.7488 56.5661 57.9128 57.0877 57.5238C61.3279 54.3615 64.3849 50.9833 66.229 47.4344L68.3913 49.8327C69.0684 50.5836 70.148 50.8696 71.1089 50.5555C71.9407 50.2837 72.5889 49.5895 72.8024 48.7407C77.0626 31.8177 72.0984 20.5774 67.1839 14.1281ZM46.4943 37.7572C45.4407 41.8346 43.1482 44.4296 42.2301 44.4428C42.2296 44.4428 42.2292 44.4428 42.2288 44.4428C42.0808 44.4428 41.8834 44.087 41.7587 43.5949C41.0142 40.6571 39.8895 37.1236 38.9176 34.2325C42.1546 34.929 44.7055 36.0681 46.3282 37.594C46.3852 37.6478 46.4395 37.7026 46.4943 37.7572ZM37.477 14.3803C38.8155 16.1928 38.8078 18.8886 38.8075 18.9133V18.9418C38.808 18.9687 38.8054 21.6761 37.477 23.4751C37.1507 23.6884 35.2812 23.6605 30.4103 21.2008C30.3843 19.8972 30.2421 18.5897 29.9825 17.2804C29.958 17.1566 29.9292 17.0361 29.9027 16.9136C35.0976 14.2175 37.1474 14.1657 37.477 14.3803Z" fill="#41AA3F"/>
<path d="M14.4 20.8297C15.4493 20.8297 16.3 19.979 16.3 18.9297C16.3 17.8803 15.4493 17.0297 14.4 17.0297C13.3507 17.0297 12.5 17.8803 12.5 18.9297C12.5 19.979 13.3507 20.8297 14.4 20.8297Z" fill="#41AA3F"/>
</svg>
