<svg width="20" height="17" viewBox="0 0 20 17" fill="none" xmlns="http://www.w3.org/2000/svg">
<path d="M0.984 10.736C0.984 7.28 1.47467 4.656 2.456 2.864C3.43733 1.072 5.05867 0.133331 7.32 0.0479965L8.536 2.544C7.256 2.672 6.36 3.29066 5.848 4.4C5.336 5.50933 5.08 7.30133 5.08 9.776H8.472V16.944H0.984V10.736ZM12.248 10.736C12.248 7.28 12.7387 4.656 13.72 2.864C14.7013 1.072 16.3227 0.133331 18.584 0.0479965L19.8 2.544C18.52 2.672 17.624 3.29066 17.112 4.4C16.6 5.50933 16.344 7.30133 16.344 9.776H19.736V16.944H12.248V10.736Z" fill="#2E294E"/>
</svg>
