<svg width="61" height="113" viewBox="0 0 61 113" fill="none" xmlns="http://www.w3.org/2000/svg">
<path d="M1.35961 78.8H4.87961C6.62628 78.8 7.85961 79.2 8.57961 80C9.31294 80.8 9.67961 82.0467 9.67961 83.74V89.7C9.67961 91.4867 9.31961 92.82 8.59961 93.7C7.89294 94.5667 6.71294 95 5.05961 95H1.35961V78.8ZM4.89961 93.38C5.68628 93.38 6.25294 93.2267 6.59961 92.92C6.95961 92.6133 7.17961 92.2 7.25961 91.68C7.35294 91.1467 7.39961 90.3467 7.39961 89.28V84.02C7.39961 83.1 7.33961 82.4 7.21961 81.92C7.11294 81.4267 6.87961 81.0667 6.51961 80.84C6.15961 80.6 5.59961 80.48 4.83961 80.48H3.61961V93.38H4.89961ZM12.9065 78.8H16.1665C17.8065 78.8 19.0065 79.14 19.7665 79.82C20.5398 80.4867 20.9265 81.58 20.9265 83.1C20.9265 85.18 20.2598 86.44 18.9265 86.88L21.2265 95H19.0465L16.9265 87.4H15.1665V95H12.9065V78.8ZM16.0265 85.78C16.9998 85.78 17.6932 85.5867 18.1065 85.2C18.5332 84.8133 18.7465 84.1133 18.7465 83.1C18.7465 82.4333 18.6732 81.9133 18.5265 81.54C18.3798 81.1533 18.1198 80.8733 17.7465 80.7C17.3732 80.5133 16.8465 80.42 16.1665 80.42H15.1665V85.78H16.0265ZM24.3976 78.8H26.6176V95H24.3976V78.8ZM30.2385 78.8H31.7785L36.3785 89.56V78.8H38.2585V95H36.8185L32.1585 83.94V95H30.2385V78.8ZM41.8049 78.8H44.0649V86.44L47.7849 78.8H49.8849L46.6849 85.94L50.4049 95H48.2049L45.1049 87.4L44.0649 89.28V95H41.8049V78.8ZM56.5273 95.18C55.1673 95.18 54.1273 94.76 53.4073 93.92C52.7006 93.08 52.3073 91.9267 52.2273 90.46L54.2273 89.92C54.2939 90.96 54.4939 91.8 54.8273 92.44C55.1739 93.08 55.7406 93.4 56.5273 93.4C57.1139 93.4 57.5539 93.24 57.8473 92.92C58.1539 92.5867 58.3073 92.1133 58.3073 91.5C58.3073 90.8333 58.1673 90.28 57.8873 89.84C57.6073 89.4 57.1606 88.9133 56.5473 88.38L53.8273 85.98C53.2806 85.5 52.8806 84.9867 52.6273 84.44C52.3873 83.88 52.2673 83.2 52.2673 82.4C52.2673 81.2133 52.6073 80.2933 53.2873 79.64C53.9673 78.9867 54.8939 78.66 56.0673 78.66C57.3473 78.66 58.3139 79 58.9673 79.68C59.6206 80.36 60.0139 81.4133 60.1473 82.84L58.2273 83.36C58.1606 82.4133 57.9739 81.6867 57.6673 81.18C57.3739 80.66 56.8406 80.4 56.0673 80.4C55.4939 80.4 55.0539 80.5533 54.7473 80.86C54.4406 81.1533 54.2873 81.5933 54.2873 82.18C54.2873 82.66 54.3673 83.0667 54.5273 83.4C54.6873 83.72 54.9606 84.0467 55.3473 84.38L58.0873 86.78C58.7939 87.4067 59.3539 88.0867 59.7673 88.82C60.1939 89.5533 60.4073 90.3867 60.4073 91.32C60.4073 92.5067 60.0473 93.4467 59.3273 94.14C58.6073 94.8333 57.6739 95.18 56.5273 95.18Z" fill="#C4C4C4" fill-opacity="0.85"/>
<path d="M39.0422 36.4871C39.0422 35.2635 38.4702 34.1732 37.5727 33.4734C38.4701 32.7735 39.0523 31.6833 39.0523 30.4597C39.0523 29.1714 38.3855 28.0308 37.4058 27.3382C38.3922 26.559 39.0018 25.3535 39.0018 24.0017V15.9779L31.2773 5.91978H32.9745V0H21.0273V5.91978H22.8321L15 15.9779V24.0019C15 25.3537 15.6618 26.5591 16.6483 27.3384C15.6685 28.031 15.0404 29.1715 15.0404 30.4599C15.0404 31.6835 15.6259 32.7737 16.5233 33.4736C15.6259 34.1734 15.0505 35.2637 15.0505 36.4873C15.0505 37.7756 15.6668 38.9162 16.6466 39.6088C15.6601 40.388 15 41.5935 15 42.9453V49.8337C15 52.1779 16.9611 54.1389 19.3052 54.1389H23.6105V54.0681C24.3271 54.6181 25.2225 55 26.1936 55H27.9157C28.8868 55 29.7823 54.6182 30.4989 54.0681V54.1389H34.8041C37.1484 54.1389 39.0017 52.1778 39.0017 49.8337V42.9453C39.0017 41.5935 38.3937 40.3881 37.4073 39.6088C38.3872 38.9161 39.0422 37.7755 39.0422 36.4871ZM22.6419 4.30524V1.61444H31.3601V4.30524H22.6419ZM24.869 5.91978H29.2402L36.6089 15.499H17.5003L24.869 5.91978ZM35.2348 34.3345C36.4514 34.3345 37.4412 35.3243 37.4412 36.5409C37.4412 37.7576 36.4514 38.7473 35.2348 38.7473H33.0821V40.3618H34.8042C36.2583 40.3618 37.3874 41.4909 37.3874 42.9449V49.8333C37.3874 51.2874 36.2584 52.5241 34.8042 52.5241H31.7771C32.0268 51.8783 32.1672 51.3281 32.1672 50.6944H30.5528C30.5528 52.1485 29.3699 53.3852 27.9158 53.3852H26.1936C24.7397 53.3852 23.5567 52.1486 23.5567 50.6944H21.9422C21.9422 51.3282 22.0826 51.8784 22.3324 52.5241H19.3052C17.8513 52.5241 16.6144 51.2875 16.6144 49.8333V42.9449C16.6144 41.4909 17.8512 40.3618 19.3052 40.3618H27.9158V38.7473H18.8748C17.6581 38.7473 16.6684 37.7576 16.6684 36.5409C16.6684 35.3243 17.6581 34.3345 18.8748 34.3345H27.9158V32.72H18.8748C17.6581 32.72 16.6684 31.7303 16.6684 30.5136C16.6684 29.2969 17.6581 28.3072 18.8748 28.3072H27.9158V26.6927H19.3052C17.8513 26.6927 16.6144 25.4561 16.6144 24.0019V17.1135H37.3874V24.0019C37.3874 25.456 36.2584 26.6927 34.8042 26.6927H33.0821V28.3072H35.2348C36.4514 28.3072 37.4412 29.2969 37.4412 30.5136C37.4412 31.7303 36.4514 32.72 35.2348 32.72H33.0821V34.3345H35.2348Z" fill="#C4C4C4" fill-opacity="0.85"/>
<path d="M22.7498 12.0547H21.0277V13.6691H22.7498V12.0547Z" fill="#C4C4C4" fill-opacity="0.85"/>
<path d="M24.472 10.3325H22.7499V11.947H24.472V10.3325Z" fill="#C4C4C4" fill-opacity="0.85"/>
<path d="M31.3604 32.72H29.6383V34.3344H31.3604V32.72Z" fill="#C4C4C4" fill-opacity="0.85"/>
<path d="M31.3604 26.6926H29.6383V28.3071H31.3604V26.6926Z" fill="#C4C4C4" fill-opacity="0.85"/>
<path d="M31.3604 38.7473H29.6383V40.3618H31.3604V38.7473Z" fill="#C4C4C4" fill-opacity="0.85"/>
</svg>
