<svg width="55" height="111" viewBox="0 0 55 111" fill="none" xmlns="http://www.w3.org/2000/svg">
<path d="M6.08977 93.18C4.72977 93.18 3.68977 92.76 2.96977 91.92C2.2631 91.08 1.86977 89.9267 1.78977 88.46L3.78977 87.92C3.85643 88.96 4.05643 89.8 4.38977 90.44C4.73643 91.08 5.3031 91.4 6.08977 91.4C6.67643 91.4 7.11643 91.24 7.40977 90.92C7.71643 90.5867 7.86977 90.1133 7.86977 89.5C7.86977 88.8333 7.72977 88.28 7.44977 87.84C7.16977 87.4 6.7231 86.9133 6.10977 86.38L3.38977 83.98C2.8431 83.5 2.4431 82.9867 2.18977 82.44C1.94977 81.88 1.82977 81.2 1.82977 80.4C1.82977 79.2133 2.16977 78.2933 2.84977 77.64C3.52977 76.9867 4.45643 76.66 5.62977 76.66C6.90977 76.66 7.87643 77 8.52977 77.68C9.1831 78.36 9.57643 79.4133 9.70977 80.84L7.78977 81.36C7.7231 80.4133 7.53643 79.6867 7.22977 79.18C6.93643 78.66 6.4031 78.4 5.62977 78.4C5.05643 78.4 4.61643 78.5533 4.30977 78.86C4.0031 79.1533 3.84977 79.5933 3.84977 80.18C3.84977 80.66 3.92977 81.0667 4.08977 81.4C4.24977 81.72 4.5231 82.0467 4.90977 82.38L7.64977 84.78C8.35643 85.4067 8.91643 86.0867 9.32977 86.82C9.75643 87.5533 9.96977 88.3867 9.96977 89.32C9.96977 90.5067 9.60977 91.4467 8.88977 92.14C8.16977 92.8333 7.23643 93.18 6.08977 93.18ZM12.7229 76.8H14.2629L18.8629 87.56V76.8H20.7429V93H19.3029L14.6429 81.94V93H12.7229V76.8ZM26.8493 76.8H29.0293L32.4893 93H30.3493L29.6093 88.92H26.3093L25.5293 93H23.4093L26.8493 76.8ZM29.3093 87.3L27.9493 80L26.6093 87.3H29.3093ZM39.1149 93.18C37.5149 93.18 36.3883 92.7067 35.7349 91.76C35.0816 90.8 34.7549 89.48 34.7549 87.8V82.08C34.7549 80.3067 35.0749 78.96 35.7149 78.04C36.3549 77.12 37.4883 76.66 39.1149 76.66C40.5683 76.66 41.6083 77.0533 42.2349 77.84C42.8749 78.6267 43.1949 79.7867 43.1949 81.32V82.6H41.0549V81.46C41.0549 80.7133 41.0216 80.14 40.9549 79.74C40.8883 79.34 40.7149 79.02 40.4349 78.78C40.1683 78.54 39.7349 78.42 39.1349 78.42C38.5216 78.42 38.0616 78.5533 37.7549 78.82C37.4616 79.0733 37.2683 79.4333 37.1749 79.9C37.0816 80.3533 37.0349 80.9667 37.0349 81.74V88.16C37.0349 88.9867 37.1016 89.6333 37.2349 90.1C37.3683 90.5667 37.5816 90.9 37.8749 91.1C38.1816 91.3 38.6016 91.4 39.1349 91.4C39.7083 91.4 40.1349 91.2733 40.4149 91.02C40.6949 90.7667 40.8683 90.42 40.9349 89.98C41.0149 89.54 41.0549 88.94 41.0549 88.18V86.98H43.1949V88.18C43.1949 89.7933 42.8883 91.0333 42.2749 91.9C41.6749 92.7533 40.6216 93.18 39.1149 93.18ZM46.3479 76.8H48.6079V84.44L52.3279 76.8H54.4279L51.2279 83.94L54.9479 93H52.7479L49.6479 85.4L48.6079 87.28V93H46.3479V76.8Z" fill="#C4C4C4" fill-opacity="0.85"/>
<path d="M54.6649 21.5905C54.6202 21.3458 54.492 21.1241 54.302 20.9634C52.5231 19.4585 52.2227 17.7992 51.9814 16.466L51.9498 16.2923C51.8664 15.8372 51.501 15.4866 51.0429 15.4221C50.8848 15.3999 50.7174 15.3885 50.5455 15.3885C49.5231 15.3885 48.0828 15.8193 47.1696 16.7815C47.0139 16.9457 46.9138 17.155 46.884 17.3794C46.8072 17.9567 46.7676 18.485 46.7328 18.9511C46.6012 20.7075 46.4849 20.8938 45.9498 21.0631C45.6145 21.1692 45.3524 21.4327 45.2481 21.7685C44.7441 23.3908 44.0754 24.9433 43.2661 26.408C42.8664 25.6448 42.4247 24.9584 42.0136 24.3197C41.0081 22.7576 40.2138 21.5235 40.4852 19.9941C41.3645 15.0373 40.9182 11.3033 39.1582 8.89573C38.1781 7.55499 36.7818 6.64094 35.085 6.21394C35.4227 3.57866 37.254 2.38392 38.2678 2.11225C38.8409 1.95874 39.181 1.36964 39.0274 0.796541C38.8737 0.223552 38.2846 -0.116868 37.7118 0.0369604C35.6186 0.59781 33.3829 2.65677 32.9559 5.94538C31.2414 5.94055 29.6843 6.46412 28.403 7.48785C26.0616 9.35861 24.647 12.835 24.1983 17.8202C24.0633 19.3204 23.0928 20.1957 21.7495 21.4068C20.653 22.3955 19.4317 23.4994 18.4533 25.1682C17.2346 24.6719 15.9272 24.35 14.5621 24.2334C14.9491 21.7034 16.7285 20.5482 17.7226 20.2819C18.2957 20.1284 18.6358 19.5393 18.4822 18.9663C18.3285 18.3932 17.7394 18.0529 17.1666 18.2067C16.6268 18.3513 16.0777 18.5968 15.5523 18.936C15.3079 17.7298 14.7167 16.5984 13.8214 15.7033C12.622 14.5038 11.0271 13.8433 9.33067 13.8433C8.77541 13.8433 8.2224 13.9158 7.6869 14.0586C7.31554 14.1578 7.02539 14.4479 6.92624 14.8193C6.34262 17.0049 6.97276 19.3555 8.57077 20.9538C9.68269 22.0658 11.1349 22.7135 12.6925 22.8024C12.5568 23.2469 12.4558 23.72 12.3971 24.2216C5.4739 24.7418 0 30.5408 0 37.5946C0 44.9894 6.01617 51.0056 13.4109 51.0056C16.1592 51.0056 18.777 50.1887 21.0182 48.6393C21.3712 48.7942 21.7253 48.9433 22.0811 49.0836C25.3141 50.3588 28.5814 51.0055 31.7922 51.0055C36.9566 51.0055 41.7498 49.3181 45.6535 46.1256C49.7337 42.7887 52.7408 37.8513 54.3496 31.8471C54.8746 29.8888 55.3377 25.2746 54.6649 21.5905ZM23.1884 23.0025C24.6334 21.6995 26.1275 20.3521 26.3381 18.0129C26.7323 13.6339 27.8781 10.6574 29.7442 9.16654C30.8519 8.28149 32.2211 7.94021 33.8142 8.15312C35.3875 8.36313 36.602 9.03956 37.4239 10.1638C38.8247 12.08 39.1429 15.2612 38.3697 19.6189C37.9511 21.978 39.0979 23.7596 40.207 25.4826C40.8285 26.4483 41.4683 27.444 41.9034 28.6028C38.2829 33.831 32.7893 37.6438 26.7443 39.0399C26.7959 38.5606 26.8221 38.0778 26.8221 37.5946C26.8221 32.7489 24.2385 28.4953 20.3767 26.1383C21.1804 24.8155 22.1981 23.8956 23.1884 23.0025ZM10.0897 19.4346C9.18726 18.532 8.75134 17.2665 8.88304 16.0152C9.0315 15.9995 9.18071 15.9915 9.33045 15.9915C10.4529 15.9915 11.5083 16.4286 12.302 17.2222C13.2045 18.1248 13.6405 19.3904 13.5087 20.6416C13.3604 20.6572 13.2111 20.6652 13.0616 20.6652H13.0614C11.9387 20.6653 10.8833 20.2282 10.0897 19.4346ZM13.4109 48.8571C7.20071 48.8571 2.14844 43.8049 2.14844 37.5946C2.14844 31.3843 7.20071 26.332 13.4109 26.332C19.6212 26.332 24.6735 31.3843 24.6735 37.5946C24.6735 38.2138 24.6229 38.8319 24.5229 39.44C23.8319 39.5291 23.1361 39.5858 22.4371 39.6096C22.5843 38.9508 22.6612 38.2776 22.6612 37.5946C22.6612 36.3848 22.4284 35.2038 21.9694 34.0846C21.7443 33.5359 21.1171 33.2731 20.5679 33.4984C20.019 33.7235 19.7565 34.351 19.9817 34.8999C20.3341 35.7592 20.5128 36.6657 20.5128 37.5946C20.5128 38.27 20.417 38.9336 20.2299 39.5761C18.6925 39.4771 17.1528 39.2231 15.6358 38.8166C15.3269 38.7338 14.9969 38.7931 14.7359 38.9783C13.7812 39.6561 12.8189 40.5087 12.2482 42.1435C12.1012 42.5648 12.2299 43.0331 12.5716 43.3202C14.5449 44.9778 16.6067 46.383 18.7304 47.5237C17.1048 48.3993 15.2947 48.8571 13.4109 48.8571ZM52.2744 31.2912C49.3271 42.2904 41.6703 48.8571 31.7923 48.8571C26.0257 48.8571 19.9386 46.4929 14.5734 42.1842C14.8577 41.6737 15.2093 41.3223 15.5871 41.0224C17.6043 41.5201 19.6556 41.7721 21.6927 41.7721C27.4579 41.7721 33.0169 39.8075 37.7686 36.0906C40.1844 34.2009 42.2782 31.9239 43.9553 29.399C43.9753 29.372 43.9941 29.344 44.0114 29.3152C45.3354 27.3066 46.3959 25.1423 47.1437 22.8918C48.6492 22.1343 48.7641 20.5999 48.8755 19.1114C48.9009 18.7712 48.927 18.4223 48.9669 18.0542C49.2526 17.8473 49.6313 17.6835 50.0109 17.5993C50.2972 18.9651 50.8539 20.7184 52.6129 22.3373C53.1106 25.5022 52.7492 29.519 52.2744 31.2912Z" fill="#C4C4C4" fill-opacity="0.85"/>
<path d="M34.6437 10.3637C34.097 10.1347 33.4671 10.3919 33.2377 10.939C33.0082 11.4861 33.2657 12.1156 33.8129 12.3451C34.5944 12.6727 35.0259 15.0307 34.3386 18.9036C34.235 19.4878 34.6245 20.0454 35.2088 20.1491C35.2723 20.1604 35.3354 20.1658 35.3977 20.1658C35.9087 20.1658 36.3618 19.7997 36.4542 19.2792C37.0689 15.8159 37.2537 11.4579 34.6437 10.3637Z" fill="#C4C4C4" fill-opacity="0.85"/>
<path d="M41.7443 41.1104C41.3884 40.6357 40.7139 40.5404 40.2394 40.8965C40.2389 40.8967 40.2343 40.9001 40.234 40.9004C39.7555 41.2507 39.6536 41.921 40.0035 42.3996C40.2135 42.6869 40.5402 42.8389 40.8714 42.8389C41.0921 42.8389 41.3148 42.7714 41.5062 42.6316L41.5308 42.6134C42.0054 42.2574 42.1003 41.5851 41.7443 41.1104Z" fill="#C4C4C4" fill-opacity="0.85"/>
<path d="M39.2791 42.8474C39.0087 42.3193 38.3616 42.1101 37.8334 42.3803C34.1567 44.261 31.0547 44.1866 31.0089 44.1845C30.4184 44.164 29.9195 44.6242 29.8963 45.2161C29.8731 45.8089 30.3348 46.3083 30.9277 46.3315C30.9441 46.3321 31.0019 46.3341 31.0979 46.3341C31.8656 46.3341 35.0654 46.2093 38.8118 44.2928C39.34 44.0229 39.5492 43.3756 39.2791 42.8474Z" fill="#C4C4C4" fill-opacity="0.85"/>
<path d="M19.985 31.087L19.9497 31.0515C19.5291 30.6334 18.8491 30.635 18.4305 31.0556C18.0121 31.4763 18.014 32.1565 18.4346 32.5749L18.4577 32.598C18.6678 32.8105 18.9445 32.9167 19.2214 32.9167C19.4943 32.9167 19.7675 32.8133 19.9769 32.6062C20.3986 32.189 20.4023 31.5087 19.985 31.087Z" fill="#C4C4C4" fill-opacity="0.85"/>
</svg>
