<svg width="40" height="40" viewBox="0 0 40 40" fill="none" xmlns="http://www.w3.org/2000/svg">
<circle cx="20" cy="20" r="19.5" stroke="#41AA3F" stroke-opacity="0.5"/>
<path d="M22.667 13.6667H16.667C15.0101 13.6667 13.667 15.0099 13.667 16.6667V22.6667C13.667 24.3236 15.0101 25.6667 16.667 25.6667H22.667C24.3238 25.6667 25.667 24.3236 25.667 22.6667V16.6667C25.667 15.0099 24.3238 13.6667 22.667 13.6667Z" stroke="#41AA3F" stroke-linecap="round" stroke-linejoin="round"/>
<path d="M22.067 19.2887C22.1411 19.788 22.0558 20.298 21.8233 20.7461C21.5908 21.1942 21.2229 21.5575 20.772 21.7845C20.3211 22.0114 19.8101 22.0904 19.3117 22.0102C18.8133 21.93 18.3529 21.6947 17.9959 21.3378C17.639 20.9808 17.4037 20.5204 17.3235 20.022C17.2433 19.5236 17.3223 19.0126 17.5492 18.5617C17.7762 18.1108 18.1395 17.7429 18.5876 17.5104C19.0357 17.2779 19.5457 17.1926 20.045 17.2667C20.5544 17.3422 21.0259 17.5796 21.39 17.9437C21.7541 18.3078 21.9915 18.7793 22.067 19.2887Z" stroke="#41AA3F" stroke-linecap="round" stroke-linejoin="round"/>
<path d="M22.9668 16.3667H22.9728" stroke="#41AA3F" stroke-linecap="round" stroke-linejoin="round"/>
</svg>
