<svg width="12" height="10" viewBox="0 0 12 10" fill="none" xmlns="http://www.w3.org/2000/svg">
<path d="M11.375 5.25V5.28125C11.4375 5.21875 11.4688 5.125 11.4688 5C11.4688 4.90625 11.4375 4.8125 11.375 4.71875L6.78125 0.09375C6.6875 0.03125 6.59375 0 6.5 0C6.40625 0 6.3125 0.03125 6.25 0.09375L5.625 0.71875C5.5625 0.8125 5.53125 0.90625 5.53125 1C5.53125 1.125 5.5625 1.1875 5.625 1.25L9.34375 5L5.625 8.75C5.5625 8.8125 5.53125 8.90625 5.53125 9C5.53125 9.125 5.5625 9.21875 5.625 9.28125L6.25 9.90625C6.3125 9.96875 6.40625 10 6.5 10C6.59375 10 6.6875 9.96875 6.78125 9.875L11.375 5.25ZM6.375 4.71875C6.4375 4.8125 6.46875 4.90625 6.46875 5C6.46875 5.125 6.4375 5.1875 6.375 5.25L1.78125 9.90625C1.6875 9.96875 1.59375 10 1.5 10C1.40625 10 1.3125 9.96875 1.25 9.875L0.625 9.28125C0.5625 9.21875 0.53125 9.125 0.53125 9C0.53125 8.90625 0.5625 8.8125 0.625 8.75L4.34375 5L0.625 1.25C0.5625 1.1875 0.53125 1.125 0.53125 1C0.53125 0.90625 0.5625 0.8125 0.625 0.71875L1.25 0.09375C1.3125 0.03125 1.40625 0 1.5 0C1.59375 0 1.6875 0.03125 1.78125 0.09375L6.375 4.71875Z" fill="#A5A5A5"/>
</svg>
