<svg width="76" height="78" viewBox="0 0 76 78" fill="none" xmlns="http://www.w3.org/2000/svg">
<path d="M37.4089 6.94544C37.1633 6.70733 36.8256 6.58008 36.4867 6.5952C34.2757 6.68213 32.0709 6.99206 29.9355 7.51868L30.5389 9.96531C32.0873 9.58358 33.6747 9.32531 35.276 9.19302V33.0194H8.22188C8.55323 31.4572 9.00929 29.9201 9.58253 28.4323L7.2329 27.5252C6.41777 29.6367 5.82186 31.8414 5.46154 34.0777C5.40233 34.443 5.5069 34.8134 5.74627 35.0956C5.98564 35.3778 6.33588 35.5391 6.70502 35.5391H36.5359C37.2325 35.5391 37.7957 34.9747 37.7957 34.2792V7.8538C37.7957 7.51112 37.6571 7.18355 37.4089 6.94544Z" fill="#41AA3F"/>
<path d="M63.9994 19.6638L61.9837 21.1769C65.9409 26.4419 68.0322 32.7147 68.0322 39.3188C68.0322 39.7207 68.0221 40.1377 68.002 40.5787H42.8351V9.50941C44.837 9.84579 46.7999 10.3825 48.6884 11.1119L49.5968 8.76232C47.0733 7.78719 44.4251 7.12829 41.7265 6.80577C41.3624 6.76293 41.0096 6.87632 40.74 7.11443C40.4691 7.35254 40.3154 7.69522 40.3154 8.0568V41.8385C40.3154 42.534 40.8786 43.0984 41.5753 43.0984H69.1825C69.8389 43.0984 70.3856 42.5932 70.4385 41.9393C70.5154 40.9818 70.5519 40.1251 70.5519 39.3188C70.5519 32.1641 68.2855 25.3685 63.9994 19.6638Z" fill="#41AA3F"/>
<path d="M36.5354 38.0591H6.29892C5.60222 38.0591 5.03906 38.6235 5.03906 39.3189C5.03906 41.079 5.17891 42.8415 5.45607 44.5599L7.94429 44.1593C7.75405 42.9826 7.63436 41.7832 7.58523 40.5788H35.2756V69.4446C32.8352 69.243 30.4377 68.7491 28.1284 67.9705L27.3234 70.3592C30.2727 71.3532 33.3543 71.9202 36.485 72.0424C36.5014 72.0424 36.5178 72.0436 36.5342 72.0436C36.8592 72.0436 37.1729 71.9177 37.4072 71.6922C37.6567 71.454 37.7953 71.1265 37.7953 70.7838V39.3189C37.7953 38.6235 37.2321 38.0591 36.5354 38.0591Z" fill="#41AA3F"/>
<path d="M69.3626 46.1019C69.1258 45.7958 68.7604 45.6182 68.3736 45.6182H41.5753C40.8786 45.6182 40.3154 46.1826 40.3154 46.878V70.5809C40.3154 70.9412 40.4691 71.2839 40.7387 71.5233C40.9718 71.7299 41.2691 71.8408 41.5753 71.8408C41.6244 71.8408 41.6748 71.8382 41.7252 71.8319C43.043 71.6745 44.3659 71.4338 45.6559 71.1164L45.0525 68.6697C44.3218 68.8499 43.5797 69.0036 42.8339 69.1283V48.1379H66.7182C66.6313 48.4251 66.5393 48.7111 66.4435 48.9958L68.831 49.8009C69.1233 48.9341 69.3815 48.0522 69.5944 47.1804C69.6877 46.8049 69.602 46.4068 69.3626 46.1019Z" fill="#41AA3F"/>
<path d="M28.7196 12.3655C28.7184 12.3642 28.7171 12.3642 28.7159 12.3642C26.9533 11.0414 24.8657 10.3421 22.6774 10.3421C22.2982 10.3421 21.9126 10.3711 21.5183 10.4203C20.29 7.91062 18.1684 5.9188 15.563 4.86682C16.6011 3.7657 17.905 2.89766 19.34 2.35845L18.4543 0C16.6439 0.679061 14.9986 1.77765 13.6934 3.17483C13.391 3.49862 13.1226 3.82744 12.8732 4.15878C12.3692 4.09075 11.8603 4.04287 11.3387 4.04287C5.08603 4.04287 0 9.13016 0 15.3816C0 21.633 5.08603 26.7202 11.3387 26.7202C12.4259 26.7202 13.4754 26.5577 14.4719 26.2705C15.912 28.2862 18.0562 29.7162 20.4903 30.2554C20.4915 30.2554 20.4915 30.2567 20.4928 30.2567C21.2235 30.4179 21.9593 30.4998 22.6774 30.4998C25.0761 30.4998 27.4056 29.6355 29.2337 28.0683C29.2349 28.067 29.2349 28.067 29.2362 28.0658C31.4724 26.1458 32.7562 23.359 32.7562 20.421C32.7562 17.2285 31.2847 14.293 28.7196 12.3655ZM11.3387 24.2005C6.47691 24.2005 2.51971 20.2446 2.51971 15.3816C2.51971 10.5185 6.47691 6.56258 11.3387 6.56258C11.3727 6.56258 11.4042 6.56762 11.4382 6.56762C10.9456 7.66243 10.671 8.68921 10.5198 9.52072L12.9979 9.97301C13.1478 9.15158 13.4489 8.0933 14.0398 6.98967C16.6011 7.81614 18.6458 9.78403 19.5882 12.2911C19.6777 12.5305 19.757 12.7711 19.8251 13.013C19.8339 13.0445 19.8414 13.076 19.849 13.1075C19.9082 13.3267 19.9599 13.546 20.0027 13.7677C20.0203 13.8647 20.0329 13.963 20.0481 14.06C20.0733 14.2238 20.0997 14.3875 20.1161 14.5526C20.1413 14.8247 20.1577 15.1019 20.1577 15.3816C20.1577 16.0304 20.0783 16.7031 19.9208 17.3809C19.0099 21.2827 15.5126 24.2005 11.3387 24.2005ZM19.8314 27.4207C18.6874 26.9546 17.6783 26.2087 16.8833 25.2613C18.7441 24.2131 20.2837 22.661 21.3054 20.7838L19.8314 27.4207ZM30.1319 19.1611H25.1971L28.154 15.2203C29.1996 16.3126 29.885 17.6758 30.1319 19.1611ZM26.1382 13.706L25.0371 15.1737L22.8349 18.1091L22.4771 17.4641V17.4628C22.5401 17.1252 22.5917 16.7838 22.6232 16.4361C22.6585 16.0833 22.6774 15.7305 22.6774 15.3816C22.6774 14.9645 22.6509 14.5538 22.6068 14.1482C22.6005 14.0889 22.5879 14.031 22.5804 13.9718C22.535 13.6077 22.4733 13.2486 22.3939 12.8959C22.3926 12.887 22.3914 12.8782 22.3889 12.8682C23.7394 12.8089 24.9879 13.1088 26.1382 13.706ZM22.2906 27.97L23.3602 23.1549L26.5678 26.8966C25.2878 27.6664 23.8075 28.0481 22.2906 27.97ZM28.4803 25.255L25.4176 21.6808H30.1307C29.9077 22.9949 29.3382 24.2283 28.4803 25.255Z" fill="#41AA3F"/>
<path d="M49.134 24.2007H46.6143V26.7204H49.134V24.2007Z" fill="#41AA3F"/>
<path d="M54.174 26.7202H51.6543V29.2399H54.174V26.7202Z" fill="#41AA3F"/>
<path d="M59.2131 35.5393H56.6934V38.059H59.2131V35.5393Z" fill="#41AA3F"/>
<path d="M49.134 34.2793H46.6143V36.799H49.134V34.2793Z" fill="#41AA3F"/>
<path d="M47.8742 29.24H45.3545V31.7597H47.8742V29.24Z" fill="#41AA3F"/>
<path d="M65.5119 30.4998H62.9922V33.0195H65.5119V30.4998Z" fill="#41AA3F"/>
<path d="M59.2131 25.4604H56.6934V27.9802H59.2131V25.4604Z" fill="#41AA3F"/>
<path d="M54.174 31.7598H51.6543V34.2795H54.174V31.7598Z" fill="#41AA3F"/>
<path d="M59.2131 30.4998H56.6934V33.0195H59.2131V30.4998Z" fill="#41AA3F"/>
<path d="M75.5915 1.52304C72.3083 1.52304 69.1814 2.37723 66.3668 3.84622C66.1212 3.28684 65.7873 2.7514 65.3325 2.29659C63.6204 0.585712 60.4644 1.47013 60.1091 1.57596C59.7047 1.69816 59.3873 2.01439 59.265 2.4188C59.1592 2.77282 58.2735 5.92875 59.9869 7.64216C60.1847 7.83869 60.3989 8.00751 60.6169 8.165C59.7917 9.03178 59.0433 9.97793 58.3529 10.972C58.1791 10.72 57.9951 10.473 57.7734 10.2513C56.1129 8.59209 53.0124 9.16028 52.6634 9.23209C52.1973 9.32658 51.8243 9.67556 51.6971 10.1341C51.527 10.7553 50.7648 13.9339 52.4278 15.5969C53.2631 16.4296 54.3126 16.897 55.3519 16.989C54.6011 19.2681 54.174 21.6908 54.174 24.2004H56.6937C56.6937 22.39 56.9633 20.6237 57.4294 18.9267C58.1249 19.3197 58.9501 19.5553 59.8433 19.5553C62.2522 19.5553 63.9114 16.7156 64.0928 16.3906C64.3057 16.0088 64.3057 15.5427 64.0928 15.1597C63.9341 14.8762 62.6465 12.6715 60.7164 12.1209C61.4899 11.0589 62.3542 10.0762 63.2991 9.18548C63.9416 10.5965 65.5341 11.6019 67.4024 11.6019C69.8113 11.6019 71.4705 8.76217 71.6519 8.43712C71.8648 8.05539 71.8648 7.58924 71.6519 7.20625C71.5436 7.01223 70.8973 5.9212 69.8856 5.07331C71.7036 4.41315 73.6223 4.04275 75.5915 4.04275V1.52304ZM56.6912 13.7348C56.5904 13.9326 56.506 14.1392 56.4102 14.3408C56.3384 14.3597 56.2653 14.3761 56.1973 14.4076C55.7211 14.623 54.8871 14.4907 54.2105 13.8142C53.8716 13.4753 53.8515 12.4813 53.9711 11.6082C54.7459 11.5729 55.6253 11.6661 55.9919 12.0327C56.4669 12.5077 56.734 13.1351 56.6886 13.6706C56.6874 13.692 56.6924 13.7134 56.6912 13.7348ZM61.4837 15.7758C60.9936 16.417 60.3284 17.0356 59.8433 17.0356C59.1958 17.0356 58.6036 16.7912 58.2597 16.4586C58.5205 15.8325 58.8128 15.2227 59.1302 14.6268C59.357 14.5588 59.5951 14.5159 59.8433 14.5159C60.3296 14.5159 60.9936 15.1345 61.4837 15.7758ZM62.5596 6.37726C62.2912 6.2664 62.0203 6.11269 61.7696 5.86072C61.4295 5.52056 61.4093 4.62355 61.529 3.83992C62.2685 3.73031 63.1945 3.72149 63.5511 4.07803C63.866 4.39299 64.0777 4.77473 64.1797 5.15268C63.6216 5.53442 63.0824 5.94387 62.5596 6.37726ZM67.4024 9.08217C66.3958 9.08217 65.5127 8.49382 65.5101 7.89413C65.5139 7.87145 65.5303 7.76814 65.5328 7.74546C65.5479 7.61948 65.5391 7.49475 65.5164 7.37255C65.7911 7.17979 66.0708 6.99585 66.353 6.81695C66.673 6.66199 67.0257 6.56246 67.4024 6.56246C67.8887 6.56246 68.5527 7.18105 69.0428 7.82232C68.5527 8.46358 67.8875 9.08217 67.4024 9.08217Z" fill="#41AA3F"/>
<path d="M28.7096 51.0014C28.8859 50.4886 28.9766 49.9481 28.9766 49.3976C28.9766 46.6183 26.7165 44.3582 23.9372 44.3582C22.4015 44.3582 20.9715 45.0725 20.0317 46.2328C18.9759 45.6571 17.7136 45.4731 16.5305 45.7427C15.4168 44.8445 14.0461 44.3582 12.5985 44.3582C9.12512 44.3582 6.29927 47.184 6.29927 50.6574C3.52003 50.6574 1.25985 52.9176 1.25985 55.6968C1.25985 56.5498 1.47151 57.3674 1.86962 58.0943C0.711818 59.0342 0 60.4616 0 61.9961C0 64.7754 2.26018 67.0355 5.03942 67.0355C6.86117 67.0355 8.46244 66.0629 9.34686 64.6091L11.3866 68.6885L12.6162 76.0611C12.717 76.6684 13.2423 77.1144 13.8584 77.1144H23.9372C24.6339 77.1144 25.1971 76.5499 25.1971 75.8545V68.4L26.4393 60.9441C26.4506 60.8748 26.4569 60.8056 26.4569 60.7363C29.9304 60.7363 32.7562 58.4761 32.7562 55.6968C32.7562 53.5601 31.0869 51.7258 28.7096 51.0014ZM26.4569 58.2166C26.1596 58.2166 25.8497 58.18 25.4528 58.0981C25.0824 58.0213 24.6957 58.1158 24.4021 58.3551C24.1086 58.5945 23.9372 58.9523 23.9372 59.3315V60.6329L22.695 68.0888C22.6837 68.1568 22.6774 68.2261 22.6774 68.2954V74.5947H14.9255L13.842 68.0875C13.8206 67.964 13.7828 67.8444 13.7261 67.731L9.94655 60.1718C9.73237 59.746 9.29646 59.4764 8.81898 59.4764H8.56701C8.15504 59.4764 7.76826 59.678 7.53393 60.0156C7.29708 60.3545 7.2429 60.7867 7.38527 61.1722C7.50369 61.4947 7.55912 61.7567 7.55912 61.9961C7.55912 63.3857 6.42904 64.5158 5.03942 64.5158C3.6498 64.5158 2.51971 63.3857 2.51971 61.9961C2.51971 60.953 3.18365 60.0068 4.17264 59.6427C4.58335 59.4903 4.88571 59.1375 4.97264 58.7066C5.05831 58.277 4.91469 57.8336 4.59343 57.5362C4.06807 57.0499 3.77956 56.3961 3.77956 55.6968C3.77956 54.3072 4.90965 53.1771 6.29927 53.1771C6.55124 53.1771 6.81707 53.23 7.13203 53.3434C7.51755 53.482 7.9459 53.4241 8.28354 53.1885C8.61992 52.9529 8.81898 52.5686 8.81898 52.1579V50.6574C8.81898 48.5736 10.5147 46.8779 12.5985 46.8779C13.6253 46.8779 14.5891 47.2886 15.3097 48.0344C15.6663 48.4048 16.2143 48.5207 16.6905 48.3254C17.6695 47.9248 18.768 48.1856 19.4786 48.9516C19.7772 49.2728 20.2219 49.4165 20.6503 49.3295C21.0799 49.2439 21.4339 48.9402 21.5851 48.5295C21.9492 47.5418 22.8941 46.8779 23.9372 46.8779C25.3268 46.8779 26.4569 48.008 26.4569 49.3976C26.4569 50.0162 26.2201 50.6158 25.7892 51.087C25.4579 51.4499 25.3684 51.9702 25.5561 52.4225C25.7451 52.8748 26.1798 53.1771 26.6699 53.196C28.6352 53.2729 30.2365 54.3954 30.2365 55.6968C30.2365 57.0625 28.5055 58.2166 26.4569 58.2166Z" fill="#41AA3F"/>
<path d="M67.089 50.6575H65.7687C61.3819 50.6575 57.7447 53.9495 57.3075 58.3149L56.7633 63.7612L54.2121 65.2919L53.8051 64.885C53.5695 64.6482 53.2495 64.5159 52.9144 64.5159H52.2845C49.853 64.5159 47.875 66.4938 47.875 68.9254C47.875 71.1566 49.5405 73.006 51.6936 73.2958C51.9834 75.4489 53.8329 77.1144 56.0641 77.1144C58.4956 77.1144 60.4735 75.1364 60.4735 72.7049V72.075C60.4735 71.7411 60.3413 71.4199 60.1044 71.1843L59.6975 70.7773L61.2244 68.2324L67.8588 67.629C72.267 67.2283 75.5918 63.5874 75.5918 59.1615C75.5918 54.4723 71.7782 50.6575 67.089 50.6575ZM57.2206 71.8633L57.9538 72.5966V72.7049C57.9538 73.7468 57.106 74.5947 56.0641 74.5947C55.0222 74.5947 54.1743 73.7468 54.1743 72.7049V72.075C54.1743 71.3796 53.6111 70.8151 52.9144 70.8151H52.2845C51.2426 70.8151 50.3947 69.9673 50.3947 68.9254C50.3947 67.8835 51.2426 67.0356 52.2845 67.0356H52.3928L53.1261 67.7688C53.5343 68.1783 54.168 68.2551 54.6656 67.9578L57.7586 66.102L58.323 66.6664L58.8874 67.2309L57.0316 70.3238C56.7343 70.8202 56.8124 71.4539 57.2206 71.8633ZM67.6308 65.1193L60.9472 65.7266L59.2666 64.0459L59.8159 58.5643C60.1233 55.4928 62.6821 53.1772 65.7687 53.1772H67.089C70.3873 53.1772 73.0721 55.8619 73.0721 59.1615C73.0721 62.2758 70.7338 64.8371 67.6308 65.1193Z" fill="#41AA3F"/>
<path d="M14.5711 11.7102C13.6804 12.7773 12.214 13.154 11.0058 12.6249C9.98401 12.1763 9.28983 11.1231 9.23692 9.94263L6.71973 10.0548C6.81422 12.1864 8.09927 14.1001 9.99283 14.9317C10.682 15.234 11.4139 15.3789 12.1434 15.3789C13.7737 15.3789 15.3951 14.6532 16.505 13.3253L14.5711 11.7102Z" fill="#41AA3F"/>
<path d="M63.5038 56.5335C62.2401 57.4658 61.7601 58.9524 61.7324 60.0346L64.2521 60.1001C64.2547 59.9968 64.2975 59.0796 65.0005 58.5618C65.6468 58.0856 66.5841 58.1033 67.3375 58.5996L68.7259 56.4969C67.0944 55.4185 64.9942 55.4336 63.5038 56.5335Z" fill="#41AA3F"/>
<path d="M17.1128 58.1246C15.6073 56.638 13.3786 55.6969 11.3389 55.6969V58.2166C13.5386 58.2166 16.3783 60.0497 16.3783 61.9961V67.0356H18.898V61.9961C18.898 60.4805 19.2659 56.9567 22.6776 56.9567V54.437C20.0356 54.437 18.098 55.8002 17.1128 58.1246Z" fill="#41AA3F"/>
</svg>
